<svg width="44" height="44" viewBox="0 0 44 44" fill="none" xmlns="http://www.w3.org/2000/svg">
<path fill-rule="evenodd" clip-rule="evenodd" d="M38.4997 18.333H29.333L21.083 7.33301H16.4997L20.1663 18.333H8.88951L5.49967 14.6663H1.83301L6.50251 25.6663H7.33301H15.6692H20.1663L16.4997 36.6663H21.083L29.333 25.6663H38.4997C40.5237 25.6663 42.1663 24.0237 42.1663 21.9997C42.1663 19.9757 40.5237 18.333 38.4997 18.333Z" fill="#8090A6"/>
<mask id="mask0" mask-type="alpha" maskUnits="userSpaceOnUse" x="1" y="7" width="42" height="30">
<path fill-rule="evenodd" clip-rule="evenodd" d="M38.4997 18.333H29.333L21.083 7.33301H16.4997L20.1663 18.333H8.88951L5.49967 14.6663H1.83301L6.50251 25.6663H7.33301H15.6692H20.1663L16.4997 36.6663H21.083L29.333 25.6663H38.4997C40.5237 25.6663 42.1663 24.0237 42.1663 21.9997C42.1663 19.9757 40.5237 18.333 38.4997 18.333Z" fill="white"/>
</mask>
<g mask="url(#mask0)">
<rect width="44" height="44" fill="#003594"/>
</g>
</svg>
