<svg width="24" height="24" viewBox="0 0 24 24" fill="none" xmlns="http://www.w3.org/2000/svg">
<path fill-rule="evenodd" clip-rule="evenodd" d="M15.2116 1.69231C15.3488 1.36296 15.1068 1 14.75 1H13.8334C13.6315 1 13.4494 1.12137 13.3718 1.30769L11.2885 6.30769C11.1513 6.63704 11.3932 7 11.75 7H12.6667C12.8685 7 13.0506 6.87863 13.1282 6.69231L15.2116 1.69231ZM18.6382 3.72361C18.8044 3.39116 18.5627 3 18.191 3H17.309C17.1197 3 16.9465 3.107 16.8618 3.27639L15.3618 6.27639C15.1956 6.60884 15.4373 7 15.809 7H16.691C16.8804 7 17.0535 6.893 17.1382 6.72361L18.6382 3.72361ZM8.86182 3.27639C8.94652 3.107 9.11965 3 9.30904 3H10.191C10.5627 3 10.8044 3.39116 10.6382 3.72361L9.13822 6.72361C9.05352 6.893 8.88039 7 8.691 7H7.80904C7.43735 7 7.1956 6.60884 7.36182 6.27639L8.86182 3.27639ZM21.5 9C21.7762 9 22.001 9.22428 21.9907 9.50022C21.9579 10.3714 21.8392 11.2154 21.636 12.0172C20.5762 11.3718 19.3315 11 18 11C14.134 11 11 14.134 11 18C11 18.695 11.1013 19.3663 11.2899 20H7.50002C7.22388 20 7.00002 19.7761 7.00002 19.5V18C3.85062 16.4322 2.14906 13.214 2.00938 9.50022C1.999 9.22428 2.22388 9 2.50002 9H21.5Z" fill="#003594"/>
<g clip-path="url(#clip0_2809_2471)">
<path d="M18 24C21.3137 24 24 21.3137 24 18C24 14.6863 21.3137 12 18 12C14.6863 12 12 14.6863 12 18C12 21.3137 14.6863 24 18 24Z" fill="#DC2328"/>
<path fill-rule="evenodd" clip-rule="evenodd" d="M18 18.7071L19.6465 20.3536L20.3536 19.6465L18.7071 18L20.3536 16.3536L19.6465 15.6465L18 17.2929L16.3536 15.6465L15.6465 16.3536L17.2929 18L15.6465 19.6465L16.3536 20.3536L18 18.7071Z" fill="white"/>
</g>
<defs>
<clipPath id="clip0_2809_2471">
<rect width="12" height="12" fill="white" transform="translate(12 12)"/>
</clipPath>
</defs>
</svg>
