<svg width="39" height="59" viewBox="0 0 39 59" fill="none" xmlns="http://www.w3.org/2000/svg">
<path fill-rule="evenodd" clip-rule="evenodd" d="M30.7498 1H8.63867C7.16165 1 5.79147 1.45746 4.6621 2.23842L19.6942 28.0954L34.7264 2.23842C33.597 1.45746 32.2268 1 30.7498 1ZM19.1159 29.0903L3.87375 2.87205C2.49882 4.15022 1.63867 5.97466 1.63867 8V55C1.63867 55.9247 2.05704 56.7517 2.71482 57.302L19.1159 29.0903ZM19.6942 30.0851L35.8106 57.8071C35.4808 57.9318 35.1232 58 34.7498 58H4.63867C4.26522 58 3.9077 57.9318 3.57791 57.8071L19.6942 30.0851ZM36.6736 57.302L20.2726 29.0903L35.5147 2.87205C36.8896 4.15022 37.7498 5.97466 37.7498 8V55C37.7498 55.9247 37.3314 56.7517 36.6736 57.302ZM8.63867 0C4.22039 0 0.638672 3.58172 0.638672 8V55C0.638672 57.2091 2.42954 59 4.63867 59H34.7498C36.9589 59 38.7498 57.2091 38.7498 55V8C38.7498 3.58172 35.1681 0 30.7498 0H8.63867Z" fill="#DFE3EB"/>
</svg>
