<svg width="24" height="24" viewBox="0 0 24 24" fill="none" xmlns="http://www.w3.org/2000/svg">
<path fill-rule="evenodd" clip-rule="evenodd" d="M9.25004 14H16C17.104 14 18 14.896 18 16C18 17.104 17.104 18 16 18H11H7.00004L0.612902 3.40082C0.323851 2.74013 0.807907 2 1.52906 2H3.34603C3.74333 2 4.10294 2.23519 4.26219 2.59918L7.50004 10H13.5C13.7762 10 14 10.2239 14 10.5V11.5C14 11.7761 13.7762 12 13.5 12H8.37504L9.25004 14ZM9.00004 22C8.44776 22 8.00004 21.5523 8.00004 21C8.00004 20.4477 8.44776 20 9.00004 20H15C15.5523 20 16 20.4477 16 21C16 21.5523 15.5523 22 15 22H9.00004Z" fill="#003594"/>
<circle cx="17" cy="17" r="7" fill="white"/>
<g clip-path="url(#clip0_7997_34106)">
<path d="M17 23C20.3137 23 23 20.3137 23 17C23 13.6863 20.3137 11 17 11C13.6863 11 11 13.6863 11 17C11 20.3137 13.6863 23 17 23Z" fill="#008C5F"/>
<path d="M18.7131 14.4285L19.9252 15.6405L15.8906 19.6751L13.5703 17.3548L14.7823 16.1428L15.8906 17.2502L18.7131 14.4285Z" fill="white"/>
</g>
<defs>
<clipPath id="clip0_7997_34106">
<rect width="12" height="12" fill="white" transform="translate(11 11)"/>
</clipPath>
</defs>
</svg>
