<svg width="20" height="20" viewBox="0 0 20 20" fill="none" xmlns="http://www.w3.org/2000/svg">
<path fill-rule="evenodd" clip-rule="evenodd" d="M1.66666 9.99984C1.66666 5.39734 5.39749 1.6665 9.99999 1.6665C14.6025 1.6665 18.3333 5.39734 18.3333 9.99984C18.3333 14.6023 14.6025 18.3332 9.99999 18.3332C5.39749 18.3332 1.66666 14.6023 1.66666 9.99984ZM3.33332 9.99984C3.33332 13.6757 6.32416 16.6665 9.99999 16.6665C13.6758 16.6665 16.6667 13.6757 16.6667 9.99984C16.6667 6.324 13.6758 3.33317 9.99999 3.33317C6.32416 3.33317 3.33332 6.324 3.33332 9.99984ZM9.16666 13.6665C9.16666 13.9426 9.39051 14.1665 9.66666 14.1665H10.3333C10.6095 14.1665 10.8333 13.9426 10.8333 13.6665V9.6665C10.8333 9.39036 10.6095 9.1665 10.3333 9.1665H9.66666C9.39051 9.1665 9.16666 9.39036 9.16666 9.6665V13.6665ZM9.66666 7.49984C9.39051 7.49984 9.16666 7.27598 9.16666 6.99984V6.33317C9.16666 6.05703 9.39051 5.83317 9.66666 5.83317H10.3333C10.6095 5.83317 10.8333 6.05703 10.8333 6.33317V6.99984C10.8333 7.27598 10.6095 7.49984 10.3333 7.49984H9.66666Z" fill="#003594"/>
</svg>
