<svg width="16" height="16" viewBox="0 0 16 16" fill="none" xmlns="http://www.w3.org/2000/svg">
<path fill-rule="evenodd" clip-rule="evenodd" d="M13.3333 6.8149C13.3333 7.14218 13.068 7.4075 12.7407 7.4075C12.4134 7.4075 12.1481 7.14218 12.1481 6.8149V4.74079L8.74073 8.14824C8.49527 8.39371 8.09729 8.39371 7.85183 8.14824C7.60637 7.90278 7.60637 7.50481 7.85183 7.25935L11.2592 3.85189H9.18518C8.85789 3.85189 8.59258 3.58657 8.59258 3.25929C8.59258 2.932 8.85789 2.66669 9.18518 2.66669H12.3333C12.8856 2.66669 13.3333 3.1144 13.3333 3.66669V6.8149ZM3.66669 3.85174H6.2222V5.03668L3.85158 5.03664L3.85158 12.1482L10.9633 12.1484V9.77782H12.1482V12.3334C12.1482 12.8856 11.7005 13.3334 11.1482 13.3334H3.66669C3.1144 13.3334 2.66669 12.8856 2.66669 12.3334V4.85174C2.66669 4.29945 3.1144 3.85174 3.66669 3.85174Z" fill="#003594"/>
</svg>
