<svg width="24" height="24" viewBox="0 0 24 24" fill="none" xmlns="http://www.w3.org/2000/svg">
<path d="M10.6612 19.3371C10.6612 20.2555 9.91756 21 9.00024 21C8.08291 21 7.33929 20.2555 7.33929 19.3371C7.33929 18.4186 8.08292 17.6741 9.00024 17.6741C9.91757 17.6741 10.6612 18.4186 10.6612 19.3371ZM15.7255 17.6741C14.8082 17.6741 14.0646 18.4186 14.0646 19.3371C14.0646 20.2555 14.8082 21 15.7255 21C16.6429 21 17.3865 20.2555 17.3865 19.3371C17.3865 18.4186 16.6429 17.6741 15.7255 17.6741ZM20.8813 9.86736L18.8375 15.9493C18.8375 15.9493 18.6683 16.8519 17.8064 16.8519C16.9444 16.8519 8.51491 16.8519 7.48624 16.8519C6.45757 16.8519 6.41434 15.7205 6.41434 15.7205C6.41434 15.7205 5.31775 7.57506 5.26341 7.08296C5.20907 6.59087 4.58051 6.22613 4.58051 6.22613L3.00021 5.50005C2.00024 5.00005 2.69239 3.66127 3.50002 4.00005C6.92935 5.61975 6.89842 5.46697 7.00092 6.10496C7.10466 6.74418 7.28495 8.28352 7.28495 8.28352V8.29341C7.30595 8.28723 7.32076 8.28352 7.32076 8.28352C7.32076 8.28352 17.8372 8.28352 19.9613 8.28352C21.4876 8.28352 20.8813 9.86985 20.8813 9.86736ZM18.8992 9.95268H7.485L8.10493 14.8922C10.2944 14.8922 15.3612 14.8922 17.4384 14.8922L18.8992 9.95268Z" fill="#111820"/>
</svg>
