<svg width="22" height="22" viewBox="0 0 22 22" fill="none" xmlns="http://www.w3.org/2000/svg">
<path d="M11 22C17.0751 22 22 17.0751 22 11C22 4.92487 17.0751 0 11 0C4.92487 0 0 4.92487 0 11C0 17.0751 4.92487 22 11 22Z" fill="#FC3F1D"/>
<path d="M12.6219 6.16053H11.5086C9.60024 6.16053 8.64604 7.11473 8.64604 8.54613C8.64604 10.1364 9.28214 10.9316 10.7134 11.8858L11.8267 12.681L8.64604 17.6111H6.10144L9.12314 13.1581C7.37374 11.8858 6.41954 10.7726 6.41954 8.70513C6.41954 6.16053 8.16884 4.41113 11.5086 4.41113H14.8484V17.6111H12.6219V6.16053Z" fill="white"/>
</svg>
