<svg width="30" height="30" viewBox="0 0 30 30" fill="none" xmlns="http://www.w3.org/2000/svg">
<path fill-rule="evenodd" clip-rule="evenodd" d="M15.0556 5.37927C17.3107 5.37927 19.1389 7.28678 19.1389 9.63981V10.9762C20.9902 12.3236 22.2014 14.5621 22.2014 17.0957C22.2014 21.2135 19.0021 24.5517 15.0556 24.5517C11.109 24.5517 7.90973 21.2135 7.90973 17.0957C7.90973 14.5621 9.12096 12.3236 10.9722 10.9762V9.63981C10.9722 7.28678 12.8004 5.37927 15.0556 5.37927ZM13.0139 9.63981C13.0139 8.46329 13.928 7.50954 15.0556 7.50954C16.1831 7.50954 17.0972 8.46329 17.0972 9.63981V10.7049H13.0139V9.63981ZM16.0764 17.8759V20.2911H14.0347V17.8759C13.4245 17.5075 13.0139 16.8191 13.0139 16.0306C13.0139 14.8541 13.928 13.9003 15.0556 13.9003C16.1831 13.9003 17.0972 14.8541 17.0972 16.0306C17.0972 16.8191 16.6867 17.5075 16.0764 17.8759Z" fill="white"/>
</svg>
