<svg width="16" height="16" viewBox="0 0 16 16" fill="none" xmlns="http://www.w3.org/2000/svg">
<path d="M8 2.39357L5.42857 1.33301L5.42857 1.92457L7.44 3.40582L7.11429 7.77769L2 6.0201L2 6.63876L7.14286 10.4686L7.14286 10.6194L7.14057 13.2343C7.14914 13.302 7.16686 13.4252 7.196 13.5849C7.24457 13.85 7.30514 14.1157 7.38 14.3614C7.56743 14.9795 7.80286 15.333 8 15.333C8.19714 15.333 8.43257 14.9795 8.62 14.3608C8.69429 14.1157 8.75543 13.8506 8.804 13.5849C8.83257 13.4258 8.85086 13.302 8.85714 13.2708L8.85714 10.4686L14 6.63876L14 6.0201L8.88571 7.77769L8.56 3.40582L10.5714 1.92457L10.5714 1.33301L8 2.39357Z" fill="#5E6E87" fill-opacity="0.5"/>
</svg>
