<svg width="24" height="24" viewBox="0 0 24 24" fill="none" xmlns="http://www.w3.org/2000/svg">
<path fill-rule="evenodd" clip-rule="evenodd" d="M2 12C2 6.477 6.477 2 12 2C17.523 2 22 6.477 22 12C22 17.523 17.523 22 12 22C6.477 22 2 17.523 2 12ZM4 12C4 16.411 7.589 20 12 20C16.411 20 20 16.411 20 12C20 7.589 16.411 4 12 4C7.589 4 4 7.589 4 12Z" fill="white"/>
<path fill-rule="evenodd" clip-rule="evenodd" d="M11 15.5C11 15.2239 11.2239 15 11.5 15L12.5 15C12.7761 15 13 15.2239 13 15.5L13 16.5C13 16.7761 12.7761 17 12.5 17L11.5 17C11.2239 17 11 16.7761 11 16.5L11 15.5ZM11 7.5C11 7.22386 11.2239 7 11.5 7L12.5 7C12.7761 7 13 7.22386 13 7.5L13 12.5C13 12.7761 12.7761 13 12.5 13L11.5 13C11.2239 13 11 12.7761 11 12.5L11 7.5Z" fill="white"/>
</svg>
