<svg width="24" height="24" viewBox="0 0 24 24" fill="none" xmlns="http://www.w3.org/2000/svg">
<path fill-rule="evenodd" clip-rule="evenodd" d="M11.8244 2.06602C11.9376 2.02357 12.0624 2.02357 12.1756 2.06602L19.6756 4.87852C19.8707 4.9517 20 5.13826 20 5.34668V11.2901C19.3663 11.1015 18.695 11.0002 18 11.0002C14.134 11.0002 11 14.1342 11 18.0002C11 19.4483 11.4397 20.7937 12.1929 21.9102C12.0666 21.9671 11.9233 21.9657 11.7978 21.9059C10.5545 21.3133 4 17.9996 4 14.0002V5.34668C4 5.13826 4.12929 4.9517 4.32444 4.87852L11.8244 2.06602ZM15.6464 9.64663C15.8417 9.84189 15.8417 10.1585 15.6464 10.3537L11 15.0002L8.35355 12.3537C8.15829 12.1585 8.15829 11.8419 8.35355 11.6466L8.64645 11.3537C8.84171 11.1585 9.15829 11.1585 9.35355 11.3537L11 13.0002L14.6464 9.35373C14.8417 9.15847 15.1583 9.15847 15.3536 9.35373L15.6464 9.64663Z" fill="#003594"/>
<g clip-path="url(#clip0_2809_2418)">
<path d="M18 24C21.3137 24 24 21.3137 24 18C24 14.6863 21.3137 12 18 12C14.6863 12 12 14.6863 12 18C12 21.3137 14.6863 24 18 24Z" fill="#DC2328"/>
<path fill-rule="evenodd" clip-rule="evenodd" d="M18 18.7071L19.6465 20.3536L20.3536 19.6465L18.7071 18L20.3536 16.3536L19.6465 15.6465L18 17.2929L16.3536 15.6465L15.6465 16.3536L17.2929 18L15.6465 19.6465L16.3536 20.3536L18 18.7071Z" fill="white"/>
</g>
<defs>
<clipPath id="clip0_2809_2418">
<rect width="12" height="12" fill="white" transform="translate(12 12)"/>
</clipPath>
</defs>
</svg>
