<svg width="24" height="24" viewBox="0 0 24 24" fill="none" xmlns="http://www.w3.org/2000/svg">
<path fill-rule="evenodd" clip-rule="evenodd" d="M2 12C2 6.478 6.477 2 12 2C17.523 2 22 6.478 22 12C22 17.522 17.523 22 12 22C6.477 22 2 17.522 2 12ZM20 12C20 7.589 16.411 4 12 4C7.589 4 4 7.589 4 12C4 16.411 7.589 20 12 20C16.411 20 20 16.411 20 12Z" fill="#5E6E87" fill-opacity="0.8"/>
<path d="M11 18H13V16H11V18Z" fill="#5E6E87" fill-opacity="0.8"/>
<path d="M13 14H11V12.461C11 11.398 11.565 10.426 12.512 9.85901C12.801 9.68701 13.095 9.29301 12.971 8.75201C12.893 8.40401 12.596 8.10701 12.248 8.02901C11.82 7.93001 11.519 8.10401 11.377 8.21701C11.138 8.40801 11 8.69301 11 9.00001H9C9 8.08201 9.412 7.22701 10.131 6.65301C10.849 6.08001 11.782 5.87101 12.693 6.07801C13.795 6.33001 14.67 7.20501 14.922 8.30701C15.215 9.59201 14.659 10.905 13.539 11.576C13.201 11.777 13 12.108 13 12.461V14Z" fill="#5E6E87" fill-opacity="0.8"/>
</svg>
