<svg width="20" height="20" viewBox="0 0 20 20" fill="none" xmlns="http://www.w3.org/2000/svg">
<path fill-rule="evenodd" clip-rule="evenodd" d="M10 0.833252C11.6667 0.833252 13.3333 2.08325 13.3333 4.16659V4.58325C15.5838 5.62399 16.6667 8.43418 16.6667 11.0184V16.6666H3.33334V11.0184C3.33334 8.43418 4.41619 5.62399 6.66667 4.58325V4.16659C6.66667 2.08325 8.33334 0.833252 10 0.833252ZM6.66667 12.4999V14.1666H13.3333V12.4999H6.66667ZM8.33334 4.16659C8.33334 3.50434 8.75 2.49992 10 2.49992C11.25 2.49992 11.6667 3.50434 11.6667 4.16659V4.26275C11.1217 4.20504 10.5667 4.16659 10 4.16659C9.43334 4.16659 8.87832 4.20504 8.33334 4.26275V4.16659Z" fill="#003594"/>
</svg>
