<svg width="24" height="24" viewBox="0 0 24 24" fill="none" xmlns="http://www.w3.org/2000/svg">
<path d="M18 24C21.3137 24 24 21.3137 24 18C24 14.6863 21.3137 12 18 12C14.6863 12 12 14.6863 12 18C12 21.3137 14.6863 24 18 24Z" fill="white"/>
<path fill-rule="evenodd" clip-rule="evenodd" d="M21 6H16C16 3.7945 14.2055 2 12 2C9.7945 2 8 3.7945 8 6H3C2.44772 6 2 6.44771 2 7V18H4V19.5C4 19.7761 4.22386 20 4.5 20H5.5C5.77614 20 6 19.7761 6 19.5V18L11 18C11 14.8288 13.1087 12.1502 16.0004 11.2898V9.00023H18.0004V11C19.4875 11.0001 20.8663 11.4639 22 12.2547V7C22 6.44772 21.5523 6 21 6ZM12.0003 3.9999C10.8973 3.9999 10.0003 4.8969 10.0003 5.9999H14.0003C14.0003 4.8969 13.1033 3.9999 12.0003 3.9999ZM5.99969 15.0002H7.99969V9.00023H5.99969V15.0002Z" fill="#003594"/>
<g clip-path="url(#clip0_7979_33307)">
<path d="M18 24C21.3137 24 24 21.3137 24 18C24 14.6863 21.3137 12 18 12C14.6863 12 12 14.6863 12 18C12 21.3137 14.6863 24 18 24Z" fill="#008C5F"/>
<path d="M19.7132 15.4285L20.9252 16.6405L16.8906 20.675L14.5703 18.3548L15.7823 17.1428L16.8906 18.2502L19.7132 15.4285Z" fill="white"/>
</g>
<defs>
<clipPath id="clip0_7979_33307">
<rect width="12" height="12" fill="white" transform="translate(12 12)"/>
</clipPath>
</defs>
</svg>
