<svg width="16" height="16" viewBox="0 0 16 16" fill="none" xmlns="http://www.w3.org/2000/svg">
<path fill-rule="evenodd" clip-rule="evenodd" d="M8.70712 10.5311C8.31659 10.9216 7.68341 10.9216 7.29288 10.5311L4.4707 7.7088C4.21063 7.44872 4.21035 7.02715 4.47006 6.76672C4.73028 6.50577 5.15286 6.50548 5.41345 6.76607L7.33333 8.68595L7.33333 2.66667C7.33333 2.29848 7.63181 2 8 2C8.36819 2 8.66667 2.29848 8.66667 2.66667L8.66667 8.68593L10.5859 6.76673C10.8462 6.50639 11.2683 6.50639 11.5286 6.76673C11.789 7.02706 11.789 7.44914 11.5286 7.70947L8.70712 10.5311ZM3.09064 13.3334L12.9091 13.3331H13.3333C13.7015 13.3331 14 13.6316 14 13.9997C14 14.3679 13.7015 14.6664 13.3333 14.6664H2.66656C2.29843 14.6664 2 14.368 2 13.9998C2 13.6316 2.29855 13.3332 2.66677 13.3333L3.09064 13.3334Z" fill="#003594"/>
</svg>
