<svg width="24" height="24" viewBox="0 0 24 24" fill="none" xmlns="http://www.w3.org/2000/svg">
<path fill-rule="evenodd" clip-rule="evenodd" d="M13.1011 13H10.25L9.37504 11H14.5C14.7762 11 15 10.7761 15 10.5V9.5C15 9.22386 14.7762 9 14.5 9H8.50004L5.26219 1.59918C5.10294 1.23519 4.74333 1 4.34603 1H2.52906C1.80791 1 1.32385 1.74013 1.6129 2.40082L8.00004 17H11.0709C11.2937 15.4424 12.0293 14.0503 13.1011 13ZM11.0709 19C11.1719 19.7061 11.3783 20.3783 11.6737 21H10C9.44776 21 9.00004 20.5523 9.00004 20C9.00004 19.4477 9.44776 19 10 19H11.0709Z" fill="#003594"/>
<g clip-path="url(#clip0_2646_3538)">
<path d="M18 24C21.3137 24 24 21.3137 24 18C24 14.6863 21.3137 12 18 12C14.6863 12 12 14.6863 12 18C12 21.3137 14.6863 24 18 24Z" fill="#DC2328"/>
<path fill-rule="evenodd" clip-rule="evenodd" d="M18 18.7071L19.6465 20.3536L20.3536 19.6465L18.7071 18L20.3536 16.3536L19.6465 15.6465L18 17.2929L16.3536 15.6465L15.6465 16.3536L17.2929 18L15.6465 19.6465L16.3536 20.3536L18 18.7071Z" fill="white"/>
</g>
<defs>
<clipPath id="clip0_2646_3538">
<rect width="12" height="12" fill="white" transform="translate(12 12)"/>
</clipPath>
</defs>
</svg>
