<svg width="24" height="24" viewBox="0 0 24 24" fill="none" xmlns="http://www.w3.org/2000/svg">
<path d="M3.59084 12L2 15.8571H2.88734L5.10921 12.84L11.667 13.3286L9.03064 21H9.95863L15.7033 13.2857H15.9296L19.8519 13.2891C19.9535 13.2763 20.1383 13.2497 20.3778 13.206C20.7755 13.1331 21.1741 13.0423 21.5426 12.93C22.4697 12.6489 23 12.2957 23 12C23 11.7043 22.4697 11.3511 21.5417 11.07C21.1741 10.9586 20.7764 10.8669 20.3778 10.794C20.1391 10.7511 19.9535 10.7237 19.9067 10.7143H15.7033L9.95863 3H9.03064L11.667 10.6714L5.10921 11.16L2.88734 8.14286H2L3.59084 12Z" fill="#003594"/>
</svg>
