<svg width="24" height="24" viewBox="0 0 24 24" fill="none" xmlns="http://www.w3.org/2000/svg">
<path fill-rule="evenodd" clip-rule="evenodd" d="M11.8244 2.06583C11.9376 2.02338 12.0624 2.02338 12.1756 2.06583L19.6756 4.87833C19.8707 4.95151 20 5.13807 20 5.3465V11.2899C19.3663 11.1013 18.695 11 18 11C14.134 11 11 14.134 11 18C11 19.4481 11.4397 20.7935 12.1929 21.91C12.0666 21.9669 11.9233 21.9655 11.7978 21.9057C10.5545 21.3131 4 17.9994 4 14V5.3465C4 5.13807 4.12929 4.95151 4.32444 4.87833L11.8244 2.06583ZM15.6464 9.64644C15.8417 9.8417 15.8417 10.1583 15.6464 10.3535L11 15L8.35355 12.3535C8.15829 12.1583 8.15829 11.8417 8.35355 11.6464L8.64645 11.3535C8.84171 11.1583 9.15829 11.1583 9.35355 11.3535L11 13L14.6464 9.35355C14.8417 9.15829 15.1583 9.15829 15.3536 9.35355L15.6464 9.64644Z" fill="#003594"/>
<g clip-path="url(#clip0_8059_33812)">
<path d="M18 24C21.3137 24 24 21.3137 24 18C24 14.6863 21.3137 12 18 12C14.6863 12 12 14.6863 12 18C12 21.3137 14.6863 24 18 24Z" fill="#008C5F"/>
<path d="M19.7132 15.4285L20.9252 16.6405L16.8906 20.6751L14.5703 18.3548L15.7823 17.1428L16.8906 18.2502L19.7132 15.4285Z" fill="white"/>
</g>
<defs>
<clipPath id="clip0_8059_33812">
<rect width="12" height="12" fill="white" transform="translate(12 12)"/>
</clipPath>
</defs>
</svg>
