<svg width="20" height="20" viewBox="0 0 20 20" fill="none" xmlns="http://www.w3.org/2000/svg">
<g clip-path="url(#clip0_658_9247)">
<path fill-rule="evenodd" clip-rule="evenodd" d="M10.1758 1.73261C10.0624 1.69011 9.93754 1.69011 9.8242 1.73261L3.65819 4.04486C3.46278 4.11814 3.33333 4.30495 3.33333 4.51364V11.6667C3.33333 14.9675 8.69091 17.7078 9.80038 18.2399C9.92896 18.3016 10.071 18.3016 10.1996 18.2399C11.3091 17.7078 16.6667 14.9675 16.6667 11.6667V4.51364C16.6667 4.30495 16.5372 4.11814 16.3418 4.04486L10.1758 1.73261ZM12.9793 8.68737C13.1748 8.49185 13.1748 8.17485 12.9793 7.97934L12.854 7.85404C12.6585 7.65852 12.3415 7.65852 12.146 7.85404L9.16666 10.8334L7.85401 9.5207C7.65849 9.32519 7.3415 9.32519 7.14598 9.5207L7.02068 9.646C6.82516 9.84152 6.82516 10.1585 7.02068 10.354L9.16666 12.5L12.9793 8.68737Z" fill="#003594"/>
</g>
<defs>
<clipPath id="clip0_658_9247">
<rect width="13.3333" height="16.6667" fill="white" transform="translate(3.33333 1.66669)"/>
</clipPath>
</defs>
</svg>
