<svg width="20" height="20" viewBox="0 0 20 20" fill="none" xmlns="http://www.w3.org/2000/svg">
<path fill-rule="evenodd" clip-rule="evenodd" d="M13.3333 3.33313V1.66667C13.3333 0.583333 12.75 0 11.6667 0H8.33333C7.25 0 6.66667 0.583333 6.66667 1.66667V3.33313H2.5V17.4998C2.5 17.4998 4.29263 17.5139 5.41676 17.5159C5.4253 18.1989 5.98163 18.75 6.66667 18.75C7.35162 18.75 7.9079 18.1991 7.91656 17.5162H12.0834C12.0921 18.1991 12.6484 18.75 13.3333 18.75C14.0184 18.75 14.5747 18.1989 14.5832 17.5159C15.7074 17.5139 17.5 17.4998 17.5 17.4998V3.33313H13.3333ZM8.33333 2.08333C8.33333 1.83333 8.5 1.66667 8.75 1.66667H11.25C11.5 1.66667 11.6667 1.83333 11.6667 2.08333V3.33333H8.33333V2.08333ZM15 14.9999H5V13.3332H15V14.9999Z" fill="black"/>
</svg>
