<svg width="24" height="24" viewBox="0 0 24 24" fill="none" xmlns="http://www.w3.org/2000/svg">
<path d="M21.9663 21.1277L16.9683 15.9295C18.2534 14.4018 18.9575 12.4797 18.9575 10.4787C18.9575 5.80364 15.1538 2 10.4787 2C5.80364 2 2 5.80364 2 10.4787C2 15.1538 5.80364 18.9575 10.4787 18.9575C12.2338 18.9575 13.9064 18.4281 15.3363 17.4232C15.3363 17.4232 18.4056 20.6154 20.3723 22.6609L21.9663 21.1277ZM10.4787 4.21185C13.9344 4.21185 16.7456 7.0231 16.7456 10.4787C16.7456 13.9344 13.9344 16.7456 10.4787 16.7456C7.0231 16.7456 4.21185 13.9344 4.21185 10.4787C4.21185 7.0231 7.0231 4.21185 10.4787 4.21185Z" fill="#000" />
</svg>
