<svg width="16" height="16" viewBox="0 0 16 16" fill="none" xmlns="http://www.w3.org/2000/svg">
<path fill-rule="evenodd" clip-rule="evenodd" d="M5.42818 7.89583L3.4216 9.76231C3.33772 9.8387 3.23931 9.89727 3.13228 9.93451C3.02526 9.97175 2.91184 9.98689 2.79883 9.97902C2.68583 9.97114 2.57558 9.94042 2.47471 9.88869C2.37385 9.83697 2.28445 9.7653 2.2119 9.67802C2.06213 9.49922 1.9869 9.26933 2.00187 9.03625C2.01685 8.80318 2.12089 8.58489 2.2923 8.42687L5.7198 5.32249C5.8743 5.18189 6.07528 5.1038 6.28385 5.10333H9.71615C9.92377 5.10333 10.1242 5.1816 10.2802 5.32249L13.7077 8.42928C13.8791 8.5873 13.9831 8.80558 13.9981 9.03866C14.0131 9.27174 13.9379 9.50163 13.7881 9.68043C13.7156 9.76771 13.6262 9.83937 13.5253 9.8911C13.4244 9.94283 13.3142 9.97355 13.2012 9.98143C13.0882 9.9893 12.9747 9.97416 12.8677 9.93692C12.7607 9.89968 12.6623 9.84111 12.5784 9.76472L10.5718 7.89462V9.30954C10.5725 9.36799 10.5616 9.426 10.5398 9.48023C10.5181 9.53446 10.4859 9.58385 10.4451 9.62558C10.4043 9.6673 10.3557 9.70054 10.3021 9.72338C10.2484 9.74623 10.1908 9.75823 10.1326 9.7587H5.86741C5.80893 9.75904 5.75096 9.74759 5.69697 9.72503C5.64297 9.70247 5.59404 9.66926 5.55308 9.62737C5.51211 9.58548 5.47995 9.53577 5.45849 9.48117C5.43704 9.42657 5.42673 9.36821 5.42818 9.30954V7.89583ZM7.78518 4.43621C6.60188 4.43621 5.64299 3.44276 5.64299 2.21811C5.64299 0.993451 6.60308 0 7.78398 0C8.96848 0 9.92737 0.993451 9.92737 2.21811C9.92737 3.44276 8.96728 4.43621 7.78398 4.43621H7.78518ZM10.2082 10.9304C10.3032 10.8561 10.423 10.8214 10.5428 10.8335C10.6626 10.8456 10.7731 10.9036 10.8514 10.9954L11.8679 12.2574C12.336 12.8378 12.2664 13.7144 11.7047 14.2238L9.94657 15.8157C9.58174 16.1469 9.1905 16.0205 9.07049 15.5267L8.96488 15.0884C8.93865 14.9528 8.94338 14.8131 8.97871 14.6796C9.01405 14.5461 9.07907 14.4224 9.1689 14.3177L10.1434 13.3098L9.1689 12.3007C8.99609 12.1225 9.01529 11.8552 9.22051 11.6962L10.2082 10.9304ZM5.79181 10.9304L6.77949 11.6962C6.98351 11.8552 7.00391 12.1225 6.8311 12.3007L5.85661 13.3098L6.8311 14.3177C7.00511 14.4984 7.09512 14.8403 7.03512 15.0884L6.92831 15.5279C6.8083 16.0217 6.41106 16.1421 6.03663 15.8085L4.29648 14.2479C4.026 14.0012 3.85869 13.6608 3.82818 13.2953C3.79768 12.9298 3.90625 12.5663 4.13206 12.2778L5.14855 11.0002C5.22584 10.9072 5.33611 10.8479 5.45612 10.8349C5.57612 10.8218 5.69647 10.8561 5.79181 10.9304Z" fill="#003594"/>
</svg>
