<svg width="20" height="20" viewBox="0 0 20 20" fill="none" xmlns="http://www.w3.org/2000/svg">
<path fill-rule="evenodd" clip-rule="evenodd" d="M15.692 8.3461C15.7384 8.33976 15.7849 8.33341 15.8333 8.33341C18.135 8.33341 20 10.1984 20 12.5001C20 14.8017 18.135 16.6667 15.8333 16.6667C13.5317 16.6667 11.6667 14.8017 11.6667 12.5001C11.6667 11.5026 12.0317 10.5992 12.6167 9.88175L8.2525 11.7001C8.30333 11.9601 8.33333 12.2259 8.33333 12.5001C8.33333 14.8017 6.46833 16.6667 4.16667 16.6667C1.865 16.6667 0 14.8017 0 12.5001C0 10.1984 1.865 8.33341 4.16667 8.33341C4.19829 8.33341 4.22923 8.33781 4.2602 8.34222C4.28798 8.34617 4.31579 8.35013 4.34417 8.35091L5.83333 5.00008H3.33333V3.33341H7.5V5.00008H12.4242L11.6667 3.33341H9.16667V1.66675H12.5L15.5883 8.35758C15.6234 8.35546 15.6577 8.35078 15.692 8.3461ZM5.8075 8.67091C6.54333 8.98675 7.17 9.50675 7.61417 10.1609L13.63 7.65425L13.1817 6.66675H6.66667L5.8075 8.67091ZM14.8017 10.2292L15.8333 12.5001H18.3333C18.3333 11.1217 17.2117 10.0001 15.8333 10.0001C15.4642 10.0001 15.1175 10.0859 14.8017 10.2292ZM4.16667 12.5001L3.135 10.2292C3.45083 10.0859 3.7975 10.0001 4.16667 10.0001C5.545 10.0001 6.66667 11.1217 6.66667 12.5001H4.16667Z" fill="black"/>
</svg>
