<svg width="24" height="24" viewBox="0 0 24 24" fill="none" xmlns="http://www.w3.org/2000/svg">
<path fill-rule="evenodd" clip-rule="evenodd" d="M15.2115 1.69231C15.3488 1.36296 15.1068 1 14.75 1H13.8333C13.6315 1 13.4494 1.12137 13.3718 1.30769L11.2885 6.30769C11.1512 6.63704 11.3932 7 11.75 7H12.6667C12.8685 7 13.0506 6.87863 13.1282 6.69231L15.2115 1.69231ZM18.6382 3.72361C18.8044 3.39116 18.5627 3 18.191 3H17.309C17.1196 3 16.9465 3.107 16.8618 3.27639L15.3618 6.27639C15.1956 6.60884 15.4373 7 15.809 7H16.691C16.8804 7 17.0535 6.893 17.1382 6.72361L18.6382 3.72361ZM8.8618 3.27639C8.9465 3.107 9.11963 3 9.30902 3H10.191C10.5627 3 10.8044 3.39116 10.6382 3.72361L9.1382 6.72361C9.0535 6.893 8.88037 7 8.69098 7H7.80902C7.43733 7 7.19558 6.60884 7.3618 6.27639L8.8618 3.27639ZM21.5 9C21.7761 9 22.001 9.22428 21.9906 9.50022C21.9579 10.3714 21.8391 11.2154 21.6359 12.0172C20.5762 11.3718 19.3315 11 18 11C14.134 11 11 14.134 11 18C11 18.695 11.1013 19.3663 11.2899 20H7.5C7.22386 20 7 19.7761 7 19.5V18C3.8506 16.4322 2.14904 13.214 2.00936 9.50022C1.99898 9.22428 2.22386 9 2.5 9H21.5Z" fill="#003594"/>
<g clip-path="url(#clip0_7997_34451)">
<path d="M18 24C21.3137 24 24 21.3137 24 18C24 14.6863 21.3137 12 18 12C14.6863 12 12 14.6863 12 18C12 21.3137 14.6863 24 18 24Z" fill="#008C5F"/>
<path d="M19.7131 15.4285L20.9252 16.6405L16.8906 20.6751L14.5703 18.3548L15.7823 17.1428L16.8906 18.2502L19.7131 15.4285Z" fill="white"/>
</g>
<defs>
<clipPath id="clip0_7997_34451">
<rect width="12" height="12" fill="white" transform="translate(12 12)"/>
</clipPath>
</defs>
</svg>
