<svg width="25" height="25" viewBox="0 0 25 25" fill="none" xmlns="http://www.w3.org/2000/svg">
<path fill-rule="evenodd" clip-rule="evenodd" d="M16 6H21C21.5523 6 22 6.44772 22 7V18H20V19.5C20 19.7761 19.7761 20 19.5 20H18.5C18.2239 20 18 19.7761 18 19.5V18H6V19.5C6 19.7761 5.77614 20 5.5 20H4.5C4.22386 20 4 19.7761 4 19.5V18H2V7C2 6.44771 2.44772 6 3 6H8C8 3.7945 9.7945 2 12 2C14.2055 2 16 3.7945 16 6ZM18.0004 15.0002H16.0004V9.00023H18.0004V15.0002ZM10.0003 5.9999C10.0003 4.8969 10.8973 3.9999 12.0003 3.9999C13.1033 3.9999 14.0003 4.8969 14.0003 5.9999H10.0003ZM7.99969 15.0002H5.99969V9.00023H7.99969V15.0002Z" fill="#003594"/>
<circle cx="18" cy="18" r="7" fill="white"/>
<path d="M18 24C21.3137 24 24 21.3137 24 18C24 14.6863 21.3137 12 18 12C14.6863 12 12 14.6863 12 18C12 21.3137 14.6863 24 18 24Z" fill="#DC2328"/>
<path fill-rule="evenodd" clip-rule="evenodd" d="M18 18.4571L19.6465 20.1036L20.3536 19.3965L18.7071 17.75L20.3536 16.1036L19.6465 15.3965L18 17.0429L16.3536 15.3965L15.6465 16.1036L17.2929 17.75L15.6465 19.3965L16.3536 20.1036L18 18.4571Z" fill="white"/>
</svg>
