<svg width="20" height="20" viewBox="0 0 20 20" fill="none" xmlns="http://www.w3.org/2000/svg">
<path d="M18.6582 1.05463C18.7761 0.933369 18.9709 0.93338 19.0888 1.05465L19.7963 1.78213C19.9097 1.89873 19.9097 2.0844 19.7963 2.201L15.6687 6.44516C15.5507 6.56644 15.3559 6.56644 15.238 6.44516L12.7037 3.83934C12.5903 3.72275 12.5903 3.53707 12.7037 3.42048L13.4112 2.69297C13.5292 2.57171 13.7239 2.57169 13.8419 2.69293L15.4533 4.34914L18.6582 1.05463Z" fill="#003594"/>
<path d="M8.54168 10.8334H14.1667C15.0867 10.8334 15.8333 11.58 15.8333 12.5C15.8333 13.42 15.0867 14.1667 14.1667 14.1667H6.66668L1.44701 2.23601C1.15758 1.57446 1.64227 0.833354 2.36436 0.833354H3.5118C3.90962 0.833354 4.26971 1.06886 4.42916 1.43332L7.08334 7.50002H11.9994C12.2759 7.50002 12.5 7.72417 12.5 8.00068V8.66603C12.5 8.94254 12.2759 9.16669 11.9994 9.16669H7.81251L8.54168 10.8334Z" fill="#003594"/>
<path d="M14.1667 16.6667C14.1667 17.1269 13.7936 17.5 13.3333 17.5H8.33334C7.87311 17.5 7.50001 17.1269 7.50001 16.6667C7.50001 16.2065 7.87311 15.8334 8.33334 15.8334H13.3333C13.7936 15.8334 14.1667 16.2065 14.1667 16.6667Z" fill="#003594"/>
</svg>
