<svg width="16" height="16" viewBox="0 0 16 16" fill="none" xmlns="http://www.w3.org/2000/svg">
<path fill-rule="evenodd" clip-rule="evenodd" d="M7.89396 0.670814C7.80218 0.675527 7.68761 0.688469 7.63933 0.699586C7.10434 0.822834 6.67037 1.18315 6.4495 1.68745C6.36229 1.88655 6.31863 2.10676 6.31897 2.34562C6.31939 2.62513 6.37429 2.85848 6.49643 3.09977C6.80756 3.71452 7.47478 4.08839 8.14382 4.02293C8.55762 3.98243 8.89779 3.82817 9.18133 3.55245C9.62873 3.1174 9.79988 2.48149 9.62957 1.88716C9.58638 1.73646 9.5554 1.66567 9.44094 1.45609C9.39558 1.37304 9.22055 1.16695 9.12703 1.08647C8.94412 0.929054 8.73125 0.808175 8.52138 0.742537C8.30529 0.674955 8.15296 0.65754 7.89396 0.670814ZM6.77619 4.63705C6.57616 4.68859 6.46228 4.73961 6.29204 4.85391C6.16427 4.93969 6.16491 4.93904 4.97681 6.18095C4.567 6.60933 4.10621 7.08993 3.95284 7.24895C3.45561 7.76452 3.41092 7.82001 3.37083 7.9717C3.32582 8.14197 3.32571 8.14329 3.34758 8.24888C3.38628 8.43575 3.45345 8.55967 3.57218 8.66327C3.78227 8.84657 4.06923 8.88227 4.32534 8.757C4.42569 8.70793 4.44285 8.69115 5.20406 7.89858C5.55026 7.5381 5.65332 7.43248 5.65886 7.43248C5.66202 7.43248 5.66461 7.98453 5.66461 8.65926C5.66461 9.85045 5.66539 9.88867 5.69151 9.97614C5.75576 10.1913 5.93591 10.3648 6.17284 10.4397C6.24071 10.4612 9.7608 10.4612 9.82867 10.4397C10.0656 10.3648 10.2457 10.1913 10.31 9.97614C10.3361 9.88867 10.3369 9.85045 10.3369 8.65926C10.3369 7.98453 10.3395 7.43248 10.3426 7.43248C10.3482 7.43248 10.4512 7.5381 10.7974 7.89858C11.5587 8.69115 11.5758 8.70793 11.6762 8.757C11.9885 8.90981 12.3589 8.81466 12.5425 8.53446C12.6326 8.39708 12.6864 8.19151 12.6599 8.08575C12.5907 7.80837 12.5984 7.8189 12.0487 7.24895C11.8953 7.08993 11.4345 6.60933 11.0247 6.18095C10.2782 5.40064 10.0774 5.19201 9.90304 5.01565C9.75793 4.86888 9.54097 4.73335 9.35741 4.67488C9.14857 4.60833 9.18029 4.60981 7.98992 4.61104C6.94442 4.6121 6.86654 4.61377 6.77619 4.63705ZM6.40201 12.6416L6.40527 14.0852C6.40542 14.1537 6.42145 14.2213 6.45208 14.2826C6.53441 14.4473 6.72028 14.5998 6.90324 14.6528C6.96775 14.6714 7.21874 14.6713 7.28384 14.6525C7.5052 14.5888 7.7095 14.3939 7.77426 14.1848C7.79971 14.1026 7.80051 14.0539 7.80051 12.5969V11.3938C7.80051 11.2282 7.6662 11.0938 7.50051 11.0938H7.09951H6.69918C6.53323 11.0938 6.3988 11.2286 6.39918 11.3945L6.40201 12.6416ZM8.201 12.6047V14.0223C8.201 14.0839 8.21215 14.1451 8.23393 14.2028C8.3156 14.4192 8.49841 14.5886 8.71989 14.653C8.78335 14.6715 9.03466 14.6712 9.09936 14.6525C9.32071 14.5888 9.52501 14.3939 9.58977 14.1848C9.61523 14.1026 9.61603 14.0539 9.61603 12.5969V11.3938C9.61603 11.2282 9.48172 11.0938 9.31603 11.0938H8.90851H8.501C8.33531 11.0938 8.201 11.2282 8.201 11.3938V12.6047Z" fill="#003594"/>
</svg>
