<svg width="114" height="114" viewBox="0 0 114 114" fill="none" xmlns="http://www.w3.org/2000/svg">
<g clip-path="url(#clip0_2627_3252)">
<ellipse cx="57" cy="57" rx="57" ry="57" fill="#EDF4FF"/>
<path fill-rule="evenodd" clip-rule="evenodd" d="M6.86583 84.1454C2.48663 76.0746 0 66.829 0 57.001C0 46.9841 2.5837 37.572 7.12144 29.3916H24.3408C41.7783 29.3916 58.0875 37.3369 68.8373 50.674C68.1533 50.1636 67.3143 49.876 66.438 49.876H55.6641C53.4509 49.876 51.6562 51.6706 51.6562 53.8838C51.6562 56.0979 53.4509 57.8916 55.6641 57.8916H73.5879C74.2559 58.1098 74.9007 58.3993 75.5107 58.7573L85.4314 64.5802C89.0331 66.6945 90.2399 71.3285 88.1256 74.9301C87.4781 76.0327 86.5625 76.9528 85.4635 77.6047C78.2539 81.8868 70.0227 84.1454 61.6375 84.1454H43.6157C43.4055 85.9124 41.9012 87.2822 40.0781 87.2822V92.1058C41.651 92.7934 42.75 94.3627 42.75 96.1885C42.75 97.6455 42.0509 98.9387 40.9696 99.751H94.7028C84.6548 108.62 71.4557 114.001 57 114.001C42.5443 114.001 29.3452 108.62 19.2972 99.751H35.625C34.5429 98.9387 33.8438 97.6455 33.8438 96.1885C33.8438 94.3627 34.9428 92.7934 36.5156 92.1058V87.2822C34.6925 87.2822 33.1883 85.9124 32.9781 84.1454H6.86583Z" fill="#003594" fill-opacity="0.3"/>
<circle cx="98" cy="16" r="16" fill="white"/>
<path fill-rule="evenodd" clip-rule="evenodd" d="M87.3335 16.0002C87.3335 10.109 92.109 5.3335 98.0002 5.3335C103.891 5.3335 108.667 10.109 108.667 16.0002C108.667 21.8914 103.891 26.6668 98.0002 26.6668C92.109 26.6668 87.3335 21.8914 87.3335 16.0002ZM89.4668 16.0002C89.4668 20.7052 93.2951 24.5335 98.0002 24.5335C102.705 24.5335 106.533 20.7052 106.533 16.0002C106.533 11.2951 102.705 7.46683 98.0002 7.46683C93.2951 7.46683 89.4668 11.2951 89.4668 16.0002Z" fill="#FFC332"/>
<path fill-rule="evenodd" clip-rule="evenodd" d="M96.9336 19.2002L99.0669 19.2002L99.0669 21.3335L96.9336 21.3335L96.9336 19.2002ZM96.9336 10.6668L99.0669 10.6668L99.0669 17.0668L96.9336 17.0668L96.9336 10.6668Z" fill="#FFC332"/>
</g>
<defs>
<clipPath id="clip0_2627_3252">
<rect width="114" height="114" fill="white"/>
</clipPath>
</defs>
</svg>
