<svg width="20" height="20" viewBox="0 0 20 20" fill="none" xmlns="http://www.w3.org/2000/svg">
    <path fill-rule="evenodd" clip-rule="evenodd" d="M13.3333 5.83333C13.3333 7.67417 11.8408 9.16667 9.99995 9.16667C8.15912 9.16667 6.66662 7.67417 6.66662 5.83333C6.66662 3.9925 8.15912 2.5 9.99995 2.5C11.8408 2.5 13.3333 3.9925 13.3333 5.83333ZM14.3819 10.8333C14.7607 10.8333 15.107 11.0473 15.2763 11.3861L16.7763 14.3861C17.1088 15.051 16.6253 15.8333 15.8819 15.8333L4.11799 15.8333C3.37461 15.8333 2.89111 15.051 3.22356 14.3861L4.72356 11.3861C4.89295 11.0473 5.23922 10.8333 5.61799 10.8333L14.3819 10.8333Z" fill="#5E6E87" fill-opacity="0.5" />
</svg>