<svg width="16" height="16" viewBox="0 0 16 16" fill="none" xmlns="http://www.w3.org/2000/svg">
    <path fill-rule="evenodd" clip-rule="evenodd" d="M7.93956 2C5.39976 2 3.3335 4.11434 3.3335 6.60606C3.3335 9.49521 5.78492 12.4128 7.72477 14.4432C7.84198 14.5659 8.03714 14.5659 8.15434 14.4432C10.0942 12.4128 12.5456 9.49521 12.5456 6.60606C12.5456 4.11434 10.4793 2 7.93956 2ZM7.93956 8.90909C9.21149 8.90909 10.2426 7.87799 10.2426 6.60606C10.2426 5.33413 9.21149 4.30303 7.93956 4.30303C6.66763 4.30303 5.63653 5.33413 5.63653 6.60606C5.63653 7.87799 6.66763 8.90909 7.93956 8.90909Z" fill="#5E6E87" fill-opacity="0.5" />
</svg>