<svg width="95" height="40" viewBox="0 0 95 40" fill="none" xmlns="http://www.w3.org/2000/svg">
    <g clip-path="url(#clip0_1458_967)">
        <path fill-rule="evenodd" clip-rule="evenodd" d="M36.4339 0C36.4339 0 32 10.4513 30.1504 14.7712C28.4719 18.635 26.7427 22.5938 24.7094 26.464C22.2644 31.1196 18.6983 33.3048 14.8788 33.3048C9.97623 33.3048 6.68882 30.2328 6.68882 25.3808C6.68882 23.3286 7.22089 21.3967 8.64606 17.6785C9.55818 15.3096 10.4323 13.2827 11.4077 10.9454C12.9279 7.29269 14.465 3.64423 16.019 0H8.9501C6.74583 5.15598 4.80125 9.77356 2.61598 14.9485C0.905766 19.015 -0.00634766 22.7015 -0.00634766 25.9826C-0.00634766 34.0776 5.90339 39.9937 14.4291 39.9937C19.6801 39.9937 24.6904 38.0934 28.0918 33.7419C29.9034 31.4426 30.9042 29.6627 33.6912 23.3983C36.9913 15.9747 40.5891 7.51227 43.7371 0H36.4339Z" fill="white" />
        <path d="M62.6192 27.9271L67.6865 27.4457C67.6231 28.1488 67.5978 28.5795 67.5915 28.7126C67.5602 29.9657 67.8295 31.208 68.3769 32.3357C68.8954 33.4821 69.7389 34.4511 70.8028 35.1227C71.794 35.7552 72.9461 36.0894 74.1219 36.0855C75.8478 36.0334 77.5208 35.4787 78.9359 34.4893C80.6664 33.335 82.0694 31.7531 83.0087 29.897C84.0264 28.0597 84.6134 26.0151 84.7253 23.9176C84.8116 22.9476 84.6951 21.9703 84.3833 21.0477C84.0714 20.1251 83.5709 19.2776 82.9137 18.559C82.237 17.8786 81.4251 17.3478 80.5304 17.0008C79.6357 16.6539 78.6782 16.4985 77.7197 16.5447C76.2671 16.5446 74.8364 16.899 73.5519 17.5772C72.1123 18.3585 70.837 19.4102 69.7957 20.6746L65.4315 20.3769C66.939 16.9987 68.4508 13.6015 69.9668 10.1852C71.4806 6.79015 73.0008 3.3824 74.5083 -0.0126953H94.3278L92.2819 4.4972H77.7704C76.3938 7.60093 75.0298 10.6751 73.6785 13.7197C74.8504 12.9026 74.5273 13.2256 75.7371 12.8202C76.945 12.4093 78.2111 12.1954 79.4869 12.1868C80.8835 12.1304 82.2761 12.3704 83.5732 12.8912C84.8702 13.412 86.0422 14.2017 87.0119 15.2082C88.929 17.214 89.8242 19.9694 89.6975 23.4742C89.604 26.4511 88.7912 29.3611 87.3286 31.9556C85.9837 34.3972 84.0069 36.4323 81.6054 37.8475C79.2039 39.2628 76.466 40.0062 73.6785 40C71.5345 40.0494 69.4174 39.5152 67.5535 38.4544C65.8512 37.4689 64.5017 35.9733 63.696 34.1789C62.891 32.4834 62.5023 30.6202 62.5622 28.7442C62.5685 28.5669 62.5812 28.2945 62.6192 27.9271Z" fill="#6E9FD5" />
        <path d="M33.8116 27.9272L38.9169 27.4458C38.8535 28.1489 38.8282 28.5796 38.8219 28.7126C38.7859 29.9654 39.0531 31.2084 39.6009 32.3357C40.1152 33.4829 40.957 34.4525 42.0206 35.1227C43.0093 35.7554 44.1595 36.0897 45.3333 36.0855C47.0507 36.0354 48.7165 35.4874 50.1283 34.5083C51.8577 33.3545 53.2587 31.7724 54.1948 29.9161C55.2125 28.0787 55.7994 26.0341 55.9113 23.9367C55.9985 22.9671 55.8831 21.99 55.5723 21.0675C55.2615 20.145 54.7622 19.2972 54.1061 18.578C53.4287 17.8986 52.6166 17.3684 51.7221 17.0216C50.8276 16.6747 49.8705 16.5187 48.9121 16.5637C47.4574 16.5628 46.0245 16.9172 44.7379 17.5962C43.2984 18.3776 42.023 19.4292 40.9818 20.6936L36.6176 20.3959C38.1251 17.0008 39.6453 13.5994 41.1528 10.2043C42.6603 6.8092 44.1742 3.40144 45.6944 0.00634766H65.5075L63.5693 4.51624H48.9691C47.6009 7.58618 46.2349 10.654 44.8709 13.7197C46.0491 12.9026 45.7197 13.232 46.9359 12.8203C48.1457 12.4083 49.414 12.1944 50.692 12.1869C52.0875 12.1313 53.4789 12.3718 54.7748 12.8926C56.0707 13.4133 57.2416 14.2025 58.2106 15.2082C60.1235 17.2141 61.0187 19.9694 60.8963 23.4743C60.8019 26.4502 59.9915 29.3595 58.5337 31.9557C57.1837 34.3943 55.2035 36.4256 52.8001 37.8373C50.3967 39.2491 47.6583 39.9894 44.8709 39.981C42.7308 40.0313 40.6175 39.497 38.7585 38.4355C37.0526 37.4507 35.6989 35.9552 34.8884 34.16C34.09 32.4626 33.7058 30.6 33.7672 28.7253C33.7736 28.5669 33.7799 28.2945 33.8116 27.9272Z" fill="#6E9FD5" />
    </g>
    <defs>
        <clipPath id="clip0_1458_967">
            <rect width="94.3278" height="40" fill="white" />
        </clipPath>
    </defs>
</svg>
    