<svg width="16" height="16" viewBox="0 0 16 16" fill="none" xmlns="http://www.w3.org/2000/svg">
    <path d="M8 2.39387L5.42857 1.33331L5.42857 1.92487L7.44 3.40612L7.11429 7.77799L2 6.0204L2 6.63907L7.14286 10.4689L7.14286 10.6197L7.14057 13.2346C7.14914 13.3023 7.16686 13.4255 7.196 13.5852C7.24457 13.8503 7.30514 14.116 7.38 14.3617C7.56743 14.9798 7.80286 15.3333 8 15.3333C8.19714 15.3333 8.43257 14.9798 8.62 14.3611C8.69429 14.116 8.75543 13.8509 8.804 13.5852C8.83257 13.4261 8.85086 13.3023 8.85714 13.2711L8.85714 10.4689L14 6.63907L14 6.02041L8.88571 7.77799L8.56 3.40612L10.5714 1.92487L10.5714 1.33331L8 2.39387Z" fill="#5E6E87" fill-opacity="0.5" />
</svg>