<svg width="20" height="20" viewBox="0 0 20 20" fill="none" xmlns="http://www.w3.org/2000/svg">
    <path fill-rule="evenodd" clip-rule="evenodd" d="M0.833333 7.74406C0.373096 7.74406 -4.64095e-07 7.37096 -4.84213e-07 6.91073C-5.0433e-07 6.45049 0.373096 6.07739 0.833334 6.07739L7.98833 6.07739L5.83403 3.92244C5.5087 3.59701 5.50874 3.06948 5.83412 2.7441C6.15953 2.41869 6.68713 2.41869 7.01254 2.7441L10.4721 6.20362C10.8626 6.59414 10.8626 7.22731 10.4721 7.61783L7.01254 11.0773C6.68713 11.4028 6.15953 11.4028 5.83412 11.0773C5.50874 10.752 5.5087 10.2244 5.83403 9.89901L7.98833 7.74406L0.833333 7.74406ZM14.1671 17.7442C13.8418 18.0696 13.3142 18.0696 12.9888 17.7442L9.52863 14.2846C9.13802 13.8941 9.13802 13.2608 9.52863 12.8703L12.9888 9.41073C13.3142 9.08538 13.8418 9.0854 14.1671 9.41078C14.4925 9.73619 14.4925 10.2638 14.1671 10.5892L12.0122 12.7441L19.1672 12.7441C19.6274 12.7441 20.0005 13.1172 20.0005 13.5775C20.0005 14.0377 19.6274 14.4108 19.1672 14.4108L12.0122 14.4108L14.1671 16.5658C14.4925 16.8912 14.4925 17.4188 14.1671 17.7442Z" fill="#5E6E87" fill-opacity="0.5" />
</svg>