<svg width="20" height="20" viewBox="0 0 20 20" fill="none" xmlns="http://www.w3.org/2000/svg">
    <path fill-rule="evenodd" clip-rule="evenodd" d="M12.5 3.33375C12.5 2.87328 12.8733 2.5 13.3337 2.5C13.7942 2.5 14.1675 2.87328 14.1675 3.33375V4.16667H16.5C17.0523 4.16667 17.5 4.61438 17.5 5.16667V16.5C17.5 17.0523 17.0523 17.5 16.5 17.5H3.5C2.94772 17.5 2.5 17.0523 2.5 16.5V5.16667C2.5 4.61438 2.94771 4.16667 3.5 4.16667H5.83333V3.33375C5.83333 2.87328 6.20662 2.5 6.66708 2.5C7.12755 2.5 7.50083 2.87328 7.50083 3.33375V4.16667H12.5V3.33375ZM15.8333 15.8333H4.16667V7.5H15.8333V15.8333Z" fill="#5E6E87" fill-opacity="0.5" />
</svg>