<svg width="160" height="160" viewBox="0 0 160 160" fill="none" xmlns="http://www.w3.org/2000/svg">
<path fill-rule="evenodd" clip-rule="evenodd" d="M93.1993 31.3649C93.4525 24.3822 99.17 18.8008 106.187 18.8008C108.155 18.8008 110.021 19.2396 111.692 20.0263C112.95 12.2076 119.705 6.23676 127.848 6.23676C135.628 6.23676 142.139 11.6857 143.802 18.9893C144.402 18.8656 145.023 18.8008 145.658 18.8008C150.708 18.8008 154.804 22.9112 154.804 27.9823C154.804 29.1768 154.577 30.3182 154.163 31.3649H93.1993Z" fill="#F4F7FA"/>
<path fill-rule="evenodd" clip-rule="evenodd" d="M29.2182 54.0613H5.07556C4.92579 53.4959 4.84538 52.9017 4.84538 52.2882C4.84538 48.5108 7.88287 45.4489 11.63 45.4489C12.5336 45.4489 13.396 45.6272 14.184 45.9499C15.6942 43.5186 18.3749 41.9025 21.43 41.9025C26.1485 41.9025 29.9735 45.7584 29.9735 50.515C29.9735 51.779 29.7037 52.9797 29.2182 54.0613Z" fill="#F4F7FA"/>
<path fill-rule="evenodd" clip-rule="evenodd" d="M69.5562 40.7621C74.2746 39.4898 79.2373 38.8098 84.3576 38.8098C115.653 38.8098 141.024 64.1794 141.024 95.476C141.024 108.084 136.906 119.731 129.942 129.144C129.653 129.129 129.363 129.122 129.071 129.122C128.127 129.122 127.192 129.202 126.276 129.36C122.641 125.328 117.428 122.924 111.805 122.924C101.048 122.924 92.3263 131.645 92.3263 142.403C92.3263 145.201 92.9195 147.924 94.052 150.424L94.4247 151.251C91.1576 151.836 87.7939 152.142 84.3576 152.142C53.0619 152.142 27.6914 126.773 27.6914 95.476C27.6914 84.0383 31.0799 73.3921 36.9085 64.4867H71.7157L72.8933 61.8835C74.0249 59.3832 74.6181 56.6596 74.6181 53.8617C74.6181 48.8184 72.7012 44.2214 69.5562 40.7621Z" fill="#F4F7FA"/>
<path fill-rule="evenodd" clip-rule="evenodd" d="M42.3733 45.8833C40.985 45.3184 39.4647 45.0076 37.8736 45.0076C31.272 45.0076 25.9206 50.3591 25.9206 56.9607C25.9206 58.0329 26.0614 59.0706 26.3261 60.0596H68.8594C69.7147 58.1701 70.1911 56.0708 70.1911 53.8617C70.1911 45.5486 63.4513 38.8098 55.1391 38.8098C49.7567 38.8098 45.0339 41.6351 42.3733 45.8833Z" fill="#F4F7FA"/>
<path fill-rule="evenodd" clip-rule="evenodd" d="M124.571 134.424C125.959 133.859 127.48 133.549 129.071 133.549C135.672 133.549 141.024 138.9 141.024 145.502C141.024 146.574 140.883 147.612 140.618 148.601H98.085C97.2297 146.711 96.7533 144.612 96.7533 142.403C96.7533 134.09 103.493 127.351 111.805 127.351C117.188 127.351 121.91 130.176 124.571 134.424Z" fill="#F4F7FA"/>
<g clip-path="url(#clip0_443_7275)">
<path d="M84.8934 139.793L84.7333 147.423L94.777 147.66C94.7429 146.752 89.5938 144.81 89.5938 144.81L89.9087 139.927L84.8934 139.793Z" fill="#455A64"/>
<g opacity="0.6">
<g opacity="0.6">
<g opacity="0.6">
<g opacity="0.6">
<g opacity="0.6">
<g opacity="0.6">
<g opacity="0.6">
<g opacity="0.6">
<g opacity="0.6">
<g opacity="0.6">
<g opacity="0.6">
<g opacity="0.6">
<g opacity="0.6">
<path opacity="0.6" d="M86.4996 144.325C86.3027 144.369 86.1636 144.574 86.203 144.76C86.2424 144.946 86.4602 145.083 86.657 145.041C86.8539 144.999 87.0297 144.76 86.9667 144.579C86.9037 144.398 86.6387 144.251 86.4602 144.338" fill="white"/>
</g>
</g>
</g>
</g>
</g>
</g>
</g>
</g>
</g>
</g>
</g>
</g>
</g>
<g opacity="0.6">
<g opacity="0.6">
<g opacity="0.6">
<g opacity="0.6">
<g opacity="0.6">
<g opacity="0.6">
<g opacity="0.6">
<g opacity="0.6">
<g opacity="0.6">
<g opacity="0.6">
<g opacity="0.6">
<g opacity="0.6">
<path opacity="0.6" d="M84.7333 147.423L84.7805 146.655L94.3939 147.169C94.3939 147.169 94.8374 147.363 94.777 147.659L84.7333 147.423Z" fill="white"/>
</g>
</g>
</g>
</g>
</g>
</g>
</g>
</g>
</g>
</g>
</g>
</g>
<path d="M89.7591 144.765C89.7565 144.813 89.5098 144.826 89.2657 144.97C89.0164 145.107 88.8878 145.306 88.8431 145.285C88.7985 145.274 88.8799 144.999 89.1791 144.831C89.4756 144.66 89.7722 144.721 89.7591 144.765Z" fill="#233862"/>
<path d="M90.8036 145.201C90.8141 145.246 90.5989 145.319 90.4283 145.513C90.2498 145.7 90.2026 145.912 90.1554 145.909C90.1081 145.915 90.0819 145.644 90.2997 145.408C90.5149 145.169 90.8036 145.156 90.8036 145.201Z" fill="#233862"/>
<path d="M91.3705 146.405C91.3259 146.413 91.2629 146.18 91.3967 145.93C91.528 145.679 91.7615 145.584 91.7799 145.623C91.8062 145.663 91.6539 145.794 91.549 146.001C91.4387 146.209 91.4177 146.403 91.3705 146.405Z" fill="#233862"/>
<path d="M89.7014 143.642C89.6804 143.684 89.4573 143.616 89.1791 143.627C88.9009 143.632 88.6831 143.716 88.6595 143.674C88.6332 143.64 88.8484 143.472 89.1739 143.464C89.4993 143.453 89.725 143.608 89.7014 143.642Z" fill="#233862"/>
<path d="M89.4914 142.512C89.4914 142.53 89.2971 142.554 88.9875 142.499C88.8352 142.47 88.6542 142.417 88.4652 142.333C88.3707 142.291 88.2762 142.241 88.1791 142.181C88.1345 142.152 88.0794 142.123 88.0295 142.066C87.9771 142.016 87.9482 141.892 88.0138 141.819C88.0663 141.748 88.1581 141.717 88.2316 141.719C88.3051 141.719 88.3655 141.735 88.4206 141.748C88.5308 141.777 88.6358 141.814 88.7303 141.856C88.9192 141.942 89.0741 142.05 89.1869 142.155C89.4152 142.365 89.4887 142.538 89.473 142.548C89.4494 142.564 89.3418 142.415 89.1082 142.241C88.9927 142.155 88.8431 142.066 88.6647 141.992C88.5754 141.955 88.4809 141.924 88.3786 141.9C88.2736 141.871 88.1818 141.869 88.1529 141.913C88.1424 141.929 88.1424 141.937 88.1634 141.966C88.1844 141.995 88.229 142.021 88.2736 142.05C88.3602 142.108 88.4495 142.157 88.5361 142.199C88.7093 142.286 88.8746 142.346 89.019 142.386C89.305 142.47 89.494 142.488 89.4914 142.512Z" fill="#233862"/>
<path d="M89.4258 142.577C89.4074 142.585 89.3156 142.414 89.3051 142.115C89.2998 141.966 89.3208 141.787 89.3864 141.596C89.4206 141.501 89.4652 141.404 89.5229 141.31C89.5833 141.218 89.6594 141.095 89.851 141.076C89.9507 141.076 90.0321 141.15 90.0583 141.213C90.0898 141.278 90.0951 141.333 90.1055 141.389C90.1213 141.499 90.116 141.609 90.0977 141.709C90.0609 141.911 89.9691 142.076 89.8693 142.194C89.6673 142.435 89.4599 142.485 89.4573 142.47C89.4416 142.446 89.6148 142.359 89.7722 142.128C89.8484 142.013 89.9192 141.861 89.9428 141.685C89.956 141.598 89.956 141.504 89.9402 141.41C89.9271 141.307 89.8903 141.226 89.8484 141.236C89.7985 141.234 89.7119 141.307 89.6673 141.389C89.6122 141.473 89.5702 141.559 89.536 141.643C89.4678 141.814 89.4363 141.976 89.4258 142.115C89.4048 142.396 89.4521 142.569 89.4258 142.577Z" fill="#233862"/>
<path d="M77.28 140.428L76.3194 147.998L66.3492 146.76C66.5171 145.868 71.8946 144.7 71.8946 144.7L72.2988 139.822L77.28 140.428Z" fill="#455A64"/>
<g opacity="0.6">
<g opacity="0.6">
<g opacity="0.6">
<g opacity="0.6">
<g opacity="0.6">
<g opacity="0.6">
<g opacity="0.6">
<g opacity="0.6">
<g opacity="0.6">
<g opacity="0.6">
<g opacity="0.6">
<g opacity="0.6">
<g opacity="0.6">
<path opacity="0.6" d="M75.0282 144.674C75.2145 144.747 75.3247 144.97 75.2565 145.149C75.1883 145.327 74.9547 145.429 74.7657 145.359C74.5768 145.288 74.4377 145.025 74.5269 144.855C74.6161 144.684 74.8996 144.579 75.0649 144.689" fill="white"/>
</g>
</g>
</g>
</g>
</g>
</g>
</g>
</g>
</g>
</g>
</g>
</g>
</g>
<g opacity="0.6">
<g opacity="0.6">
<g opacity="0.6">
<g opacity="0.6">
<g opacity="0.6">
<g opacity="0.6">
<g opacity="0.6">
<g opacity="0.6">
<g opacity="0.6">
<g opacity="0.6">
<g opacity="0.6">
<g opacity="0.6">
<path opacity="0.6" d="M76.322 147.998L76.3877 147.232L66.8032 146.332C66.8032 146.332 66.3361 146.461 66.3518 146.762L76.322 147.998Z" fill="white"/>
</g>
</g>
</g>
</g>
</g>
</g>
</g>
</g>
</g>
</g>
</g>
</g>
<path d="M71.7397 144.632C71.7345 144.679 71.9759 144.729 72.199 144.907C72.4247 145.08 72.5244 145.293 72.5717 145.282C72.6189 145.28 72.5796 144.994 72.3066 144.784C72.0363 144.569 71.7345 144.587 71.7397 144.632Z" fill="#233862"/>
<path d="M70.6453 144.91C70.6296 144.952 70.8291 145.057 70.9708 145.272C71.1204 145.484 71.1361 145.7 71.1834 145.702C71.228 145.715 71.2936 145.45 71.1125 145.185C70.934 144.923 70.6506 144.868 70.6453 144.91Z" fill="#233862"/>
<path d="M69.908 146.02C69.9499 146.035 70.047 145.812 69.9526 145.545C69.8607 145.277 69.6429 145.149 69.6166 145.185C69.5851 145.219 69.7164 145.374 69.7899 145.595C69.8686 145.815 69.8581 146.009 69.908 146.02Z" fill="#233862"/>
<path d="M71.9629 143.532C71.9786 143.577 72.2096 143.54 72.4825 143.593C72.7554 143.64 72.9601 143.753 72.989 143.716C73.0205 143.687 72.8315 143.49 72.5114 143.432C72.1886 143.375 71.9419 143.493 71.9629 143.532Z" fill="#233862"/>
<path d="M72.3355 142.443C72.3329 142.462 72.5219 142.514 72.8342 142.504C72.989 142.498 73.1754 142.472 73.3748 142.417C73.4745 142.388 73.5769 142.354 73.6792 142.31C73.7291 142.289 73.7868 142.265 73.8446 142.218C73.9049 142.176 73.9496 142.058 73.8971 141.976C73.8551 141.898 73.7685 141.856 73.6976 141.845C73.6241 141.835 73.5638 141.84 73.5087 141.845C73.3932 141.856 73.2856 141.879 73.1859 141.908C72.9864 141.966 72.8184 142.05 72.6898 142.136C72.4326 142.31 72.3329 142.472 72.3487 142.483C72.3697 142.501 72.4983 142.37 72.7554 142.233C72.884 142.165 73.0441 142.097 73.2305 142.052C73.3249 142.029 73.4221 142.013 73.527 142.005C73.6346 141.992 73.7265 142.003 73.7475 142.05C73.7554 142.068 73.7554 142.076 73.7291 142.102C73.7029 142.126 73.6583 142.147 73.6084 142.17C73.5139 142.215 73.4194 142.249 73.3276 142.281C73.1439 142.341 72.9707 142.375 72.8237 142.396C72.5271 142.428 72.3382 142.417 72.3355 142.443Z" fill="#233862"/>
<path d="M72.3906 142.517C72.4063 142.527 72.5244 142.373 72.5769 142.076C72.6032 141.929 72.6084 141.748 72.5717 141.551C72.5533 141.452 72.5218 141.352 72.4798 141.25C72.4326 141.15 72.3775 141.016 72.1911 140.971C72.094 140.956 72.0022 141.019 71.9654 141.076C71.9234 141.137 71.9103 141.189 71.892 141.244C71.8605 141.352 71.85 141.459 71.8526 141.562C71.8605 141.766 71.9261 141.945 72.0074 142.076C72.1728 142.344 72.3696 142.425 72.3749 142.409C72.3932 142.388 72.2358 142.278 72.115 142.026C72.0547 141.9 72.0101 141.74 72.0101 141.562C72.0101 141.473 72.0232 141.381 72.052 141.289C72.0809 141.192 72.1282 141.116 72.1675 141.129C72.2174 141.134 72.2935 141.221 72.3224 141.305C72.3644 141.397 72.3932 141.488 72.4142 141.575C72.4562 141.753 72.4641 141.919 72.4536 142.058C72.4378 142.341 72.3644 142.506 72.3906 142.517Z" fill="#233862"/>
<path d="M92.6853 99.3027L77.0463 99.8038C77.0463 99.8038 73.3616 124.413 73.4613 126.123L71.1886 143.973L77.8022 144.204C77.8022 144.204 78.8414 138.416 79.5684 134.454C80.0513 131.817 80.9331 127.949 81.1719 125.748C81.4108 123.547 85.2792 108.174 85.2792 108.174C85.2792 108.174 84.9931 126.018 85.001 126.75C85.0089 127.482 84.2373 144.188 84.2373 144.188H90.8062C91.1448 141.173 91.9505 129.109 92.1263 126.672C92.4386 122.272 93.428 109.835 93.5724 106.657C93.7115 103.477 92.6853 99.3027 92.6853 99.3027Z" fill="#2A4E96"/>
<path d="M91.6563 99.4209C91.625 99.4209 91.5989 99.169 91.5989 98.8594C91.5989 98.5498 91.625 98.2979 91.6563 98.2979C91.6876 98.2979 91.7137 98.5498 91.7137 98.8594C91.7111 99.1716 91.6876 99.4209 91.6563 99.4209Z" fill="#455A64"/>
<path d="M92.3048 99.7172C92.2759 99.7224 92.2051 99.3997 92.2418 98.9983C92.2733 98.5968 92.3966 98.2898 92.4229 98.3003C92.4544 98.3108 92.3861 98.6204 92.3547 99.0088C92.3205 99.3945 92.3389 99.7119 92.3048 99.7172Z" fill="#455A64"/>
<path d="M86.4628 98.5444C86.4681 98.5654 86.2896 98.5418 86.1321 98.7281C86.0587 98.8173 85.9957 98.9537 86.0245 99.0981C86.0482 99.2424 86.1846 99.3657 86.3552 99.3972C86.5258 99.4287 86.699 99.3657 86.7725 99.2397C86.8512 99.1164 86.8434 98.9642 86.8066 98.8567C86.7279 98.6258 86.5547 98.5812 86.5652 98.5628C86.5652 98.5576 86.6098 98.5576 86.6754 98.5917C86.741 98.6258 86.8276 98.7019 86.8801 98.8278C86.93 98.9511 86.9536 99.1295 86.8591 99.2948C86.7646 99.4654 86.5363 99.5493 86.329 99.5074C86.1216 99.4706 85.9406 99.308 85.9143 99.1138C85.8854 98.9249 85.9747 98.7648 86.0665 98.6704C86.1636 98.5733 86.2712 98.5339 86.3447 98.5261C86.4235 98.5234 86.4628 98.5392 86.4628 98.5444Z" fill="#455A64"/>
<path d="M79.2535 125.698C79.2404 125.727 78.4924 125.446 77.5791 125.071C76.6658 124.696 75.9362 124.368 75.9467 124.339C75.9598 124.31 76.7078 124.591 77.6211 124.966C78.5344 125.341 79.264 125.669 79.2535 125.698Z" fill="#455A64"/>
<path d="M78.4031 62.3175C78.4556 61.407 79.0146 60.8482 79.7993 60.3837C80.584 59.9193 81.6023 59.8721 82.4238 60.2657C82.9749 60.5281 83.4552 60.9741 84.0614 61.0528C85.0587 61.1814 86.0009 60.2578 86.9772 60.4887C87.5545 60.6251 87.9954 61.205 87.9744 61.798C87.9535 62.391 87.4706 62.9367 86.8827 63.0285C87.5362 63.123 87.9036 63.9469 87.6621 64.5608C87.4207 65.1748 86.7357 65.529 86.077 65.5448C85.4182 65.5579 84.7858 65.2903 84.2136 64.9597C83.6441 64.6291 83.1114 64.2302 82.5156 63.9469C81.9199 63.6635 81.2375 63.4956 80.5998 63.6661C79.7363 63.8944 79.1275 64.7104 78.9018 65.5736C78.6761 66.4369 78.7732 67.35 78.907 68.2316C79.0409 69.1132 79.2114 70.0026 79.1275 70.8921C79.117 70.9971 79.0934 71.1151 79.0015 71.1676C78.8703 71.2411 78.7181 71.1151 78.6183 70.9997C77.5161 69.693 76.6736 68.1686 76.1566 66.5418C75.8548 65.5973 75.6895 64.6763 76.0516 63.7527C76.419 62.8213 77.6368 61.9423 78.4031 62.3175Z" fill="#263238"/>
<path d="M77.5633 66.715L79.0199 75.7068C79.2928 77.386 80.3846 79.0075 83.0195 78.4565C85.2713 77.8058 85.1033 76.1869 84.8094 74.1902C84.8094 74.1902 84.8173 74.2663 84.8094 74.1902C84.8094 74.1902 87.2843 73.5474 87.0638 71.0285C86.9562 69.8111 86.531 67.3237 86.1216 65.0777C85.6807 62.669 83.4604 61.0003 81.0197 61.2469L80.7783 61.2706C78.1748 61.6877 77.0752 64.1279 77.5633 66.715Z" fill="#FFBE9D"/>
<path d="M84.812 74.1928C84.812 74.1928 83.2374 74.4447 81.4396 73.5552C81.4396 73.5552 82.4264 75.426 84.9144 74.9458L84.812 74.1928Z" fill="#EB996E"/>
<path d="M77.9543 68.557C77.9097 68.5439 76.175 68.2185 76.4033 69.9319C76.6316 71.6452 78.3034 71.0628 78.3008 71.0129C78.2981 70.9657 77.9543 68.557 77.9543 68.557Z" fill="#FFBE9D"/>
<path d="M85.9169 62.7372C85.644 62.2649 85.2057 61.9107 84.7386 61.6273C83.7334 61.016 82.5445 60.6933 81.3714 60.793C80.2009 60.8927 79.0567 61.4306 78.2929 62.3227C77.6814 63.0363 77.3272 63.952 77.2143 64.8861C77.1014 65.8202 77.2195 66.7726 77.4794 67.6752C77.5922 68.0714 77.7444 68.4807 78.0594 68.7484C78.2562 68.9163 78.5711 69.0081 78.7601 68.8297C78.8703 68.7248 78.8992 68.5621 78.9202 68.4125C79.117 67.0534 79.3007 65.5946 78.6866 64.364C78.9727 63.9022 79.3139 63.464 79.7626 63.157C80.2088 62.8474 80.7704 62.6795 81.3032 62.7871C82.0931 62.9471 82.6416 63.6451 83.3056 64.1016C84.2557 64.7549 85.5285 64.9097 86.6045 64.503L85.9169 62.7372Z" fill="#263238"/>
<path d="M90.1528 66.8936L90.5569 66.7834L96.8897 72.9389L102.018 73.5555C102.018 73.5555 101.968 72.0048 100.036 70.0264C98.3148 68.2606 94.2863 66.1563 92.9242 65.0753C92.583 64.805 92.3337 64.7237 92.3337 64.7237L90.1528 66.8936Z" fill="#FFBE9D"/>
<path d="M90.1498 63.9658L89.5016 63.7848L87.9741 63.0606L86.2368 63.706C86.2368 63.706 86.2761 64.3016 86.7328 64.139L84.9114 64.7398C84.9114 64.7398 85.061 65.1701 85.1424 65.199C85.2237 65.2279 84.0742 65.3249 84.0742 65.3249C84.0742 65.3249 84.0637 65.91 85.1607 65.8995C86.2578 65.8891 86.6724 65.7028 86.6724 65.7028L87.5464 65.9363L87.5122 66.4558L86.3234 66.4374L86.3785 67.1039C86.5543 67.1878 87.9112 67.3374 87.9112 67.3374C87.9112 67.3374 89.7483 67.3636 90.2469 67.1249C90.7429 66.8861 91.3807 66.5371 91.3807 66.5371L92.3333 64.7215L90.1498 63.9658Z" fill="#FFBE9D"/>
<path d="M88.5099 64.2722C88.4994 64.2879 88.4049 64.2354 88.2474 64.1646C88.09 64.0885 87.8669 63.9993 87.6307 63.8366L87.7094 63.8393C87.6858 63.855 87.6622 63.8707 87.6386 63.8865C87.384 64.0492 87.1163 64.1252 86.9221 64.1489C86.7279 64.1725 86.6072 64.1541 86.6072 64.1384C86.6019 64.0964 87.0874 64.078 87.5677 63.771C87.5913 63.7553 87.6123 63.7422 87.6333 63.7291L87.6727 63.7028L87.712 63.7291C87.9246 63.8786 88.1477 63.9862 88.2947 64.0859C88.4443 64.1803 88.523 64.2591 88.5099 64.2722Z" fill="#EB996E"/>
<path d="M87.9509 65.1985C87.9535 65.209 87.8354 65.2405 87.6569 65.167C87.4758 65.1014 87.2842 64.9125 87.0349 64.7997L87.0979 64.7945C86.9929 64.8653 86.8748 64.9335 86.7489 64.9939C86.3867 65.167 86.0245 65.2274 85.7673 65.2353C85.5075 65.2431 85.35 65.2064 85.35 65.1907C85.3474 65.1487 85.9957 65.2038 86.6911 64.8706C86.8118 64.8128 86.9247 64.7499 87.0271 64.6843L87.0585 64.6633L87.09 64.679C87.3709 64.8207 87.5388 65.0149 87.6937 65.0936C87.8406 65.1775 87.9509 65.1775 87.9509 65.1985Z" fill="#EB996E"/>
<path d="M89.5781 65.7679C89.5702 65.7889 89.4442 65.7496 89.2369 65.7522C89.0322 65.7522 88.7435 65.8099 88.481 65.9805C88.3183 66.0854 88.1924 66.2192 88.1084 66.3504L88.0926 66.374L88.069 66.3793C87.7016 66.4475 87.4496 66.4816 87.4444 66.4554C87.4391 66.4291 87.6806 66.353 88.0428 66.2612L88.0034 66.2901C88.0874 66.1405 88.2265 65.9831 88.4049 65.8676C88.6962 65.6787 89.0191 65.6341 89.2395 65.6577C89.4652 65.6787 89.5859 65.7548 89.5781 65.7679Z" fill="#EB996E"/>
<path d="M91.381 66.5366C91.381 66.5392 91.3653 66.5497 91.3285 66.5733C91.2839 66.5996 91.2314 66.6284 91.1658 66.6652C91.011 66.7491 90.7984 66.8646 90.5307 67.0089C90.3916 67.0771 90.2446 67.1794 90.0504 67.2241C89.8615 67.2713 89.6541 67.3001 89.4311 67.3238C88.9849 67.3684 88.4758 67.3867 87.9141 67.3867H87.9115H87.9089C87.6911 67.3657 87.4627 67.3421 87.2265 67.3159C86.9851 67.2818 86.7489 67.2713 86.4759 67.1873L86.4497 67.1794L86.4445 67.1453C86.4077 66.9171 86.3657 66.6678 86.3237 66.4133L86.3106 66.3398L86.3841 66.3425C86.741 66.3582 87.1242 66.3713 87.5152 66.3871L87.4496 66.4448C87.4601 66.2821 87.4706 66.1063 87.4837 65.9253L87.531 65.9909C87.2554 65.9174 86.9588 65.8387 86.657 65.76L86.7016 65.7573C86.2765 65.9069 85.8382 65.9358 85.3868 65.9568C85.1637 65.9646 84.9302 65.9672 84.694 65.9226C84.4656 65.878 84.2111 65.7783 84.072 65.5448C84.0352 65.4766 84.009 65.4084 84.0037 65.3192L84.0011 65.2588L84.0667 65.2536C84.3397 65.23 84.6073 65.2063 84.8724 65.1749C84.938 65.167 85.0036 65.1591 85.0666 65.1486L85.1086 65.1407C85.1139 65.1407 85.1086 65.1407 85.1086 65.1407C85.106 65.1434 85.1139 65.1355 85.0929 65.1539C85.0771 65.1696 85.0719 65.1985 85.0771 65.2116C85.0719 65.2352 85.1244 65.2667 85.1139 65.2562C85.0981 65.2483 85.0771 65.2352 85.0719 65.2273C85.0351 65.1906 85.022 65.1617 85.0036 65.1303C84.938 65.0043 84.8908 64.8836 84.8462 64.755L84.8225 64.6895L84.8882 64.6685C85.518 64.4612 86.1269 64.2618 86.7095 64.0702L86.7515 64.1909C86.6807 64.2119 86.6045 64.2329 86.5232 64.2172C86.4418 64.204 86.3683 64.1594 86.3185 64.0991C86.2187 63.9784 86.1873 63.842 86.1715 63.7029L86.1663 63.6583L86.2109 63.6426C86.8276 63.4143 87.4076 63.2017 87.9509 63.0023L87.9745 62.9945L87.9955 63.005C88.5493 63.2726 89.0584 63.5166 89.5177 63.737L89.5098 63.7344C89.7329 63.8 89.9455 63.8603 90.1475 63.9181C90.3444 63.9889 90.5281 64.0545 90.7039 64.1148C91.0451 64.2382 91.3417 64.3431 91.5884 64.4323C91.8193 64.5189 92.0056 64.5871 92.1421 64.637C92.2681 64.6842 92.3337 64.7131 92.3311 64.7157C92.3284 64.7209 92.2628 64.6999 92.1342 64.6606C91.9951 64.616 91.8088 64.5556 91.5726 64.4795C91.3259 64.3982 91.0267 64.2985 90.6829 64.1831C90.5097 64.1253 90.3234 64.0624 90.1239 63.9968C89.9218 63.9417 89.7093 63.8839 89.4862 63.8236H89.4836L89.4809 63.821C89.019 63.6058 88.5073 63.3644 87.9509 63.1047L87.9955 63.1073C87.4549 63.3093 86.8749 63.5297 86.2607 63.7606L86.3001 63.6977C86.3132 63.8105 86.3473 63.939 86.4182 64.0204C86.4891 64.1043 86.5993 64.1148 86.7121 64.0755L86.7541 64.1962C86.1715 64.3903 85.5626 64.5924 84.9354 64.7997L84.9774 64.7131C85.0194 64.8338 85.0692 64.9571 85.127 65.0647C85.1401 65.0909 85.1585 65.1198 85.1716 65.1303C85.1742 65.1329 85.1742 65.1329 85.1742 65.1329C85.1716 65.1329 85.1611 65.1512 85.1585 65.1617V65.1644C85.1847 65.0961 85.169 65.146 85.1742 65.1329C85.1795 65.1355 85.1873 65.1407 85.1926 65.146C85.2057 65.1565 85.2136 65.1722 85.2162 65.1854C85.2215 65.2011 85.2136 65.2326 85.1978 65.2483C85.1768 65.2667 85.1821 65.2614 85.1768 65.2641C85.1664 65.2693 85.1559 65.2719 85.1532 65.2719C85.1296 65.2772 85.1139 65.2798 85.0981 65.2824C85.0299 65.2929 84.9643 65.3008 84.896 65.3087C84.6283 65.3402 84.358 65.3638 84.0851 65.3874L84.1481 65.3218C84.1507 65.3664 84.1691 65.4294 84.1979 65.4792C84.3003 65.655 84.5155 65.7495 84.7281 65.7888C84.9433 65.8308 85.1663 65.8282 85.3894 65.8203C85.8277 65.8019 86.2765 65.7652 86.6544 65.6366L86.6807 65.6288L86.699 65.634C87.0008 65.7154 87.2974 65.7941 87.573 65.8675L87.6254 65.8807L87.6228 65.9331C87.6097 66.1142 87.5966 66.29 87.5861 66.4527L87.5808 66.5156L87.5178 66.513C87.1242 66.4946 86.7436 66.4763 86.3867 66.4605L86.4497 66.3923C86.4891 66.6468 86.5284 66.8961 86.5652 67.127L86.5337 67.085C86.7515 67.1506 87.0166 67.1768 87.2475 67.2083C87.4837 67.2345 87.7121 67.2608 87.9273 67.2844H87.9246C88.4836 67.2923 88.9928 67.2792 89.4337 67.2424C89.6541 67.2241 89.8588 67.2004 90.0426 67.1558C90.2236 67.1191 90.3732 67.022 90.515 66.9564C90.7879 66.8226 91.0031 66.715 91.1606 66.6363C91.2288 66.6048 91.2839 66.5786 91.3312 66.5576C91.36 66.5419 91.381 66.534 91.381 66.5366Z" fill="#EB996E"/>
<path d="M89.187 64.5609C89.2159 64.5819 88.9508 64.9361 88.5126 65.2457C88.0743 65.558 87.657 65.6918 87.6439 65.6603C87.6281 65.6236 88.0113 65.4373 88.4338 65.1355C88.8564 64.8338 89.1555 64.5347 89.187 64.5609Z" fill="#EB996E"/>
<path d="M101.976 73.3637L96.8922 72.9361L90.898 75.2161L89.5779 76.019L91.4544 82.4211C91.4544 82.4211 100.847 76.8875 101.246 76.4152C102.474 74.959 101.976 73.3637 101.976 73.3637Z" fill="#F99746"/>
<path d="M74.8391 78.0736L73.0912 79.1572L77.1276 95.0418L76.3954 104.188C77.4373 105.096 80.0696 105.875 85.0639 105.592C90.0582 105.309 93.3808 103.149 93.3808 103.149L92.9031 93.7272L91.7694 83.0956L90.4834 75.8276L86.6412 76.1083L85.1453 75.2215L84.4734 75.5573L83.6126 77.9424L81.3687 76.3235L78.7443 75.0588L77.7864 76.8483L74.8391 78.0736Z" fill="#F99746"/>
<path d="M91.8083 105.1C94.5247 104.588 97.4195 104.885 100.113 106.137C103.427 107.68 105.945 110.422 107.198 113.855C108.45 117.291 108.292 121.008 106.748 124.321C103.563 131.163 95.4037 134.14 88.5566 130.955C85.2421 129.412 82.7241 126.67 81.4716 123.238C80.2192 119.802 80.3778 116.085 81.921 112.771C83.8542 108.618 87.6181 105.889 91.8083 105.1ZM96.6892 131.094C100.598 130.354 104.111 127.81 105.916 123.935C107.356 120.842 107.505 117.373 106.335 114.169C105.165 110.964 102.819 108.407 99.7261 106.966C96.633 105.526 93.1632 105.377 89.9578 106.547C86.7523 107.716 84.1946 110.062 82.7538 113.154C81.313 116.247 81.1643 119.716 82.3341 122.92C83.5039 126.125 85.8502 128.682 88.9433 130.123C91.4514 131.296 94.1546 131.573 96.6892 131.094Z" fill="#263238"/>
<path d="M94.3133 132.898C92.2512 132.898 90.1991 132.449 88.2758 131.553C84.7994 129.934 82.1624 127.063 80.8504 123.462C79.5352 119.861 79.7038 115.966 81.323 112.49C83.2694 108.314 87.1424 105.308 91.6861 104.449C94.647 103.891 97.6575 104.264 100.39 105.536C103.867 107.155 106.504 110.026 107.816 113.627C109.131 117.228 108.962 121.123 107.343 124.599C105.727 128.068 102.852 130.704 99.247 132.019C97.641 132.607 95.9722 132.898 94.3133 132.898ZM94.3397 106.431C92.9386 106.431 91.5374 106.676 90.1826 107.171C87.1424 108.281 84.7168 110.505 83.352 113.439C81.9872 116.372 81.8451 119.66 82.9555 122.699C84.0625 125.739 86.2898 128.164 89.2242 129.528C91.5308 130.602 94.072 130.919 96.5703 130.446C100.407 129.72 103.678 127.182 105.318 123.661C106.682 120.727 106.824 117.439 105.714 114.4C104.607 111.361 102.38 108.936 99.4453 107.571C97.8161 106.811 96.0812 106.431 94.3397 106.431Z" fill="#263238"/>
<path d="M61.0296 105.173L61.1519 104.875C61.413 104.238 61.9814 103.864 62.4242 104.046L82.4301 112.183C82.5292 112.223 82.5622 112.372 82.5028 112.514L81.6502 114.608C81.5907 114.75 81.4651 114.833 81.366 114.793L61.3601 106.656C60.9173 106.478 60.7686 105.814 61.0296 105.173Z" fill="#263238"/>
<path d="M75.8418 86.526L73.9312 92.8467L74.8891 105.727L72.0704 106.084C72.0704 106.084 68.8398 95.1058 69.1626 93.1354C69.4854 91.1649 70.7897 85.3767 70.7897 85.3767L75.8418 86.526Z" fill="#FFBE9D"/>
<path d="M74.8838 105.638L76.196 107.879L77.0148 109.985L75.7761 109.497C75.7761 109.497 75.246 112.032 75.0386 112.098C74.8313 112.166 74.2356 111.959 74.2959 111.473C74.2959 111.473 73.9994 111.772 73.6267 111.694C73.254 111.618 73.1674 111.376 73.2068 110.914C73.2068 110.914 72.7737 111.269 72.5139 111.048C72.2541 110.828 72.2804 110.445 72.2804 110.445C72.2804 110.445 71.7161 110.495 71.6374 110.201C71.5586 109.907 71.5403 109.072 71.6059 108.752C71.6715 108.435 71.9418 107.133 71.9418 107.133L72.0704 106.087L74.8838 105.638Z" fill="#FFBE9D"/>
<path d="M74.5741 110.012C74.5426 110.006 74.4534 110.327 74.3773 110.731C74.3012 111.135 74.2644 111.465 74.2959 111.473C74.3274 111.478 74.4166 111.158 74.4928 110.754C74.5689 110.35 74.6056 110.02 74.5741 110.012Z" fill="#EB996E"/>
<path d="M73.4246 109.72C73.3931 109.715 73.3144 109.97 73.2488 110.295C73.1831 110.618 73.1569 110.885 73.1884 110.891C73.2199 110.896 73.2986 110.641 73.3642 110.316C73.4272 109.993 73.4561 109.726 73.4246 109.72Z" fill="#EB996E"/>
<path d="M72.4641 109.45C72.4299 109.448 72.4037 109.676 72.3617 109.946C72.3171 110.214 72.2462 110.429 72.2777 110.445C72.304 110.458 72.4273 110.253 72.4772 109.967C72.5218 109.681 72.4929 109.45 72.4641 109.45Z" fill="#EB996E"/>
<path d="M75.8731 108.765C75.8417 108.76 75.7577 109.078 75.6632 109.469C75.5687 109.86 75.4978 110.18 75.5293 110.19C75.5608 110.201 75.6816 109.891 75.7787 109.495C75.8731 109.101 75.9046 108.771 75.8731 108.765Z" fill="#EB996E"/>
<path d="M69.0077 97.3938C69.0077 97.1787 68.1233 94.177 68.3936 92.6211C68.6613 91.0652 71.8631 80.5516 72.2935 79.8012C72.7239 79.0508 73.6608 78.6441 73.6608 78.6441C73.6608 78.6441 75.5662 79.5336 76.2092 81.8399C76.8522 84.1462 76.8522 87.0429 76.8522 87.0429L74.2776 93.4266L74.5847 97.0527L69.0077 97.3938Z" fill="#F99746"/>
<path d="M76.5241 88.1659C76.5398 88.1711 76.4454 88.4781 76.2564 88.9609C76.0701 89.4437 75.7892 90.1023 75.4638 90.8212C75.1489 91.5217 74.8628 92.1541 74.6345 92.6631C74.4245 93.1354 74.2986 93.4293 74.2776 93.4214C74.2618 93.4161 74.3563 93.1092 74.5453 92.6264C74.7316 92.1436 75.0124 91.485 75.3378 90.7635C75.6528 90.0629 75.9388 89.4306 76.1672 88.9216C76.3771 88.4519 76.5057 88.158 76.5241 88.1659Z" fill="#009FEE"/>
<path d="M106.486 118.544C106.486 118.544 106.477 118.476 106.468 118.345C106.458 118.208 106.446 118.015 106.43 117.763C106.424 117.635 106.415 117.492 106.405 117.336C106.39 117.181 106.356 117.009 106.328 116.826C106.3 116.642 106.265 116.443 106.234 116.231C106.209 116.016 106.128 115.801 106.075 115.565C105.861 114.618 105.418 113.504 104.721 112.318C104.017 111.138 103.002 109.908 101.619 108.862C101.445 108.731 101.271 108.604 101.093 108.47C100.909 108.348 100.713 108.236 100.52 108.118C100.324 108.006 100.137 107.869 99.9254 107.776C99.7168 107.676 99.505 107.573 99.2933 107.474C99.1874 107.424 99.0784 107.371 98.9726 107.321C98.8605 107.281 98.7484 107.24 98.6363 107.2C98.4089 107.119 98.1816 107.035 97.9512 106.951C97.7176 106.873 97.4748 106.823 97.235 106.758C96.9921 106.702 96.7523 106.618 96.497 106.589C95.9925 106.518 95.485 106.415 94.9587 106.412C94.6971 106.403 94.4325 106.378 94.1647 106.381C93.8969 106.393 93.6291 106.409 93.3582 106.421C93.2243 106.431 93.0872 106.431 92.9502 106.446L92.5454 106.509C92.2745 106.552 92.0005 106.586 91.7265 106.642C91.1909 106.789 90.6335 106.898 90.1041 107.119C89.5592 107.293 89.0454 107.564 88.5191 107.816C88.2638 107.956 88.0147 108.118 87.7624 108.267C87.6379 108.348 87.504 108.414 87.3856 108.504L87.0276 108.772C86.5324 109.111 86.0996 109.535 85.6481 109.945C85.2402 110.397 84.8104 110.842 84.4554 111.356L84.1752 111.729L83.9292 112.131L83.6832 112.533C83.5991 112.666 83.5213 112.803 83.4559 112.947C83.3189 113.23 83.1819 113.516 83.0417 113.803C82.9327 114.102 82.8206 114.4 82.7117 114.702C82.3162 115.923 82.1013 117.218 82.0826 118.538C82.1013 119.858 82.3131 121.153 82.7085 122.373C82.8175 122.675 82.9296 122.974 83.0386 123.273C83.1756 123.559 83.3158 123.846 83.4528 124.129L83.5555 124.341L83.677 124.543L83.923 124.945L84.169 125.346L84.4492 125.72C84.8011 126.234 85.2308 126.676 85.6419 127.13C86.0934 127.538 86.5262 127.965 87.0213 128.304L87.3794 128.572C87.4978 128.662 87.6317 128.73 87.7562 128.808C88.0115 128.958 88.2575 129.123 88.5129 129.26C89.0391 129.512 89.5529 129.783 90.101 129.957C90.6304 130.178 91.1877 130.287 91.7233 130.433C91.9943 130.489 92.2714 130.52 92.5423 130.567L92.9471 130.629C93.081 130.648 93.218 130.645 93.355 130.654C93.626 130.67 93.8937 130.682 94.1615 130.695C94.4293 130.698 94.694 130.673 94.9556 130.664C95.4818 130.661 95.9925 130.558 96.4939 130.486C96.7492 130.461 96.9859 130.374 97.2319 130.318C97.4716 130.253 97.7176 130.203 97.9481 130.125C98.1785 130.041 98.4058 129.957 98.6331 129.876C98.7452 129.836 98.8573 129.795 98.9694 129.755C99.0784 129.705 99.1843 129.652 99.2902 129.602C99.5019 129.499 99.7137 129.4 99.9223 129.3C100.134 129.204 100.321 129.07 100.517 128.958C100.71 128.839 100.906 128.727 101.09 128.606C101.268 128.475 101.442 128.344 101.616 128.214C102.999 127.168 104.014 125.938 104.715 124.758C105.412 123.575 105.854 122.457 106.069 121.514C106.125 121.277 106.203 121.06 106.228 120.848C106.262 120.636 106.293 120.437 106.321 120.253C106.349 120.07 106.384 119.898 106.399 119.743C106.409 119.587 106.418 119.444 106.424 119.316C106.44 119.064 106.452 118.871 106.462 118.734C106.48 118.613 106.486 118.544 106.486 118.544C106.486 118.544 106.49 118.613 106.483 118.743C106.477 118.88 106.471 119.073 106.462 119.325C106.455 119.453 106.449 119.596 106.443 119.755C106.43 119.914 106.399 120.082 106.371 120.269C106.343 120.456 106.315 120.655 106.284 120.867C106.262 121.081 106.184 121.299 106.131 121.539C105.923 122.492 105.487 123.619 104.792 124.814C104.092 126.006 103.074 127.255 101.685 128.313C101.51 128.444 101.333 128.578 101.155 128.712C100.969 128.836 100.772 128.948 100.579 129.07C100.38 129.185 100.193 129.322 99.9815 129.418C99.7697 129.521 99.558 129.624 99.3431 129.727C99.2341 129.78 99.1283 129.829 99.0193 129.882C98.9072 129.923 98.7919 129.966 98.6798 130.007C98.4525 130.091 98.2221 130.175 97.9886 130.262C97.755 130.34 97.509 130.393 97.263 130.458C97.017 130.514 96.7741 130.601 96.5188 130.629C96.0112 130.704 95.4974 130.81 94.9618 130.813C94.6971 130.822 94.4293 130.85 94.1584 130.847C93.8875 130.835 93.6166 130.819 93.3426 130.807C93.2056 130.798 93.0686 130.798 92.9315 130.782L92.5205 130.72C92.2465 130.676 91.9662 130.642 91.6922 130.586C91.1473 130.44 90.5836 130.331 90.0481 130.106C89.4938 129.929 88.9738 129.658 88.4413 129.403C88.1797 129.263 87.9306 129.098 87.6721 128.945C87.5445 128.864 87.4106 128.796 87.2922 128.706L86.9279 128.435C86.4266 128.092 85.9875 127.663 85.5298 127.249C85.1156 126.791 84.6797 126.343 84.3216 125.823L84.0382 125.443L83.7891 125.038L83.54 124.63L83.4154 124.425L83.3095 124.21C83.1694 123.921 83.0293 123.631 82.8891 123.341C82.777 123.04 82.6649 122.734 82.5528 122.429C82.1511 121.193 81.9332 119.88 81.9176 118.541C81.9363 117.205 82.1511 115.892 82.5528 114.656C82.6649 114.351 82.777 114.046 82.8891 113.744C83.0293 113.454 83.1694 113.165 83.3064 112.875C83.3718 112.729 83.4497 112.589 83.5368 112.455L83.786 112.047L84.0351 111.642L84.3184 111.262C84.6765 110.742 85.1125 110.294 85.5266 109.837C85.9844 109.422 86.4234 108.993 86.9248 108.65L87.2891 108.38C87.4106 108.289 87.5445 108.221 87.669 108.14C87.9275 107.987 88.1766 107.822 88.4382 107.682C88.9738 107.427 89.4938 107.156 90.0449 106.979C90.5805 106.758 91.1442 106.646 91.6891 106.499C91.9662 106.443 92.2434 106.412 92.5174 106.365L92.9284 106.303C93.0654 106.284 93.2025 106.288 93.3395 106.278C93.6135 106.266 93.8844 106.25 94.1553 106.238C94.4262 106.235 94.6909 106.259 94.9587 106.269C95.4912 106.272 96.005 106.378 96.5157 106.453C96.771 106.481 97.0139 106.568 97.2599 106.624C97.5028 106.689 97.7488 106.742 97.9854 106.82C98.219 106.904 98.4494 106.991 98.6767 107.075C98.7919 107.116 98.9041 107.159 99.0162 107.2C99.1251 107.253 99.2341 107.302 99.34 107.355C99.5549 107.458 99.7666 107.561 99.9784 107.664C100.19 107.76 100.38 107.9 100.576 108.012C100.769 108.134 100.965 108.246 101.152 108.37C101.33 108.504 101.507 108.638 101.682 108.769C103.074 109.83 104.089 111.076 104.789 112.268C105.484 113.466 105.92 114.593 106.128 115.546C106.181 115.783 106.259 116.004 106.281 116.219C106.312 116.433 106.34 116.633 106.368 116.816C106.393 117.003 106.424 117.171 106.44 117.33C106.446 117.489 106.452 117.632 106.458 117.76C106.468 118.012 106.474 118.205 106.48 118.342C106.49 118.479 106.486 118.544 106.486 118.544Z" fill="#009FEE"/>
<path d="M93.9608 120.914C93.953 120.906 94.0501 120.785 94.2207 120.562C94.3912 120.339 94.6248 120.008 94.8768 119.578C95.3833 118.723 95.9318 117.427 96.0919 115.91C96.252 114.393 95.9843 113.011 95.6667 112.069C95.5092 111.597 95.3492 111.224 95.2284 110.969C95.1103 110.718 95.0395 110.578 95.0473 110.573C95.0526 110.571 95.0736 110.602 95.113 110.665C95.1497 110.728 95.2101 110.82 95.2757 110.946C95.4121 111.192 95.5854 111.562 95.7586 112.037C96.105 112.979 96.3911 114.383 96.2283 115.926C96.0683 117.466 95.4961 118.781 94.9607 119.631C94.6957 120.058 94.4464 120.384 94.2626 120.599C94.1734 120.709 94.0947 120.785 94.0448 120.84C93.9923 120.89 93.9635 120.916 93.9608 120.914Z" fill="#009FEE"/>
<path d="M93.415 121.856C93.4334 121.887 93.352 121.971 93.2339 122.037C93.1158 122.105 93.003 122.134 92.9846 122.1C92.9662 122.068 93.0476 121.984 93.1657 121.919C93.2864 121.853 93.3966 121.824 93.415 121.856Z" fill="#009FEE"/>
<path d="M85.9747 106.994C85.9773 107.031 85.7043 107.086 85.3658 107.112C85.0272 107.141 84.749 107.133 84.7464 107.097C84.7438 107.06 85.0141 107.005 85.3553 106.979C85.6965 106.95 85.972 106.958 85.9747 106.994Z" fill="white"/>
<path d="M78.5473 74.9153C78.5473 74.9153 78.6679 75.4097 77.5269 77.2014C77.5269 77.2014 80.0842 80.0182 83.4451 79.3834C83.4451 79.3834 83.4924 78.8828 83.4451 77.8985C83.4451 77.8985 80.0178 74.9156 78.5473 74.9153Z" fill="#ED7D2B"/>
<ellipse cx="94.3554" cy="118.542" rx="12.1319" ry="12.3051" fill="#C1D4F5" fill-opacity="0.9"/>
<path fill-rule="evenodd" clip-rule="evenodd" d="M94.3554 130.847C101.056 130.847 106.487 125.338 106.487 118.542C106.487 111.746 101.056 106.237 94.3554 106.237C91.6551 106.237 89.1608 107.132 87.1451 108.645C87.8143 108.533 88.504 108.475 89.2086 108.475C95.5027 108.475 100.605 113.149 100.605 118.915C100.605 124.681 95.5027 129.356 89.2086 129.356C88.9802 129.356 88.7533 129.35 88.5282 129.338C90.2577 130.3 92.2435 130.847 94.3554 130.847Z" fill="white" fill-opacity="0.48"/>
</g>
<defs>
<clipPath id="clip0_443_7275">
<rect width="49.2627" height="88" fill="white" transform="translate(60.9009 60)"/>
</clipPath>
</defs>
</svg>
